<svg xmlns="http://www.w3.org/2000/svg" viewBox="0 0 1120 520" role="img" aria-label="LIBERO contact force and velocity traces">
<defs>
<clipPath id="panel-force"><rect x="86" y="92" width="974" height="113"/></clipPath>
<clipPath id="panel-eef"><rect x="86" y="240" width="974" height="113"/></clipPath>
<clipPath id="panel-gripper"><rect x="86" y="388" width="974" height="113"/></clipPath>
</defs>
<rect width="1120" height="520" rx="28" fill="#fffaf0"/>
<rect x="1" y="1" width="1118" height="518" rx="28" fill="none" stroke="#d7cab4" stroke-width="2"/>
<text x="56" y="38" font-family="Georgia, Times New Roman, serif" font-size="25" font-weight="700" fill="#151b14">Same contact episode: simulator force and velocity</text>
<text x="56" y="62" font-family="Avenir Next, Trebuchet MS, sans-serif" font-size="14" fill="#5a6257">Force is logged from MuJoCo/robosuite after rollout; it is not part of the policy observation.</text>
<circle cx="760" cy="36" r="6" fill="#b86842"/>
<text x="772" y="41" font-family="Avenir Next, Trebuchet MS, sans-serif" font-size="14" font-weight="800" fill="#151b14">SmolVLA</text>
<circle cx="872" cy="36" r="6" fill="#6f7680"/>
<text x="884" y="41" font-family="Avenir Next, Trebuchet MS, sans-serif" font-size="14" font-weight="800" fill="#151b14">Larger</text>
<circle cx="984" cy="36" r="6" fill="#486b3e"/>
<text x="996" y="41" font-family="Avenir Next, Trebuchet MS, sans-serif" font-size="14" font-weight="800" fill="#151b14">PRISM</text>
<text x="56" y="80" font-family="Avenir Next, Trebuchet MS, sans-serif" font-size="15" font-weight="900" fill="#263f24">Contact force norm</text>
<line x1="86" y1="205" x2="1060" y2="205" stroke="#d7cab4" stroke-width="1.5"/>
<line x1="86" y1="92" x2="86" y2="205" stroke="#d7cab4" stroke-width="1.5"/>
<text x="38" y="205" font-family="Avenir Next, Trebuchet MS, sans-serif" font-size="12" fill="#5a6257">0</text>
<text x="30" y="97" font-family="Avenir Next, Trebuchet MS, sans-serif" font-size="12" fill="#5a6257">57</text>
<polyline points="86.0,204.6 87.9,204.6 89.8,204.6 91.6,204.6 93.5,204.6 95.4,204.6 97.3,204.6 99.1,204.6 101.0,204.6 102.9,204.6 104.8,204.6 106.6,204.6 108.5,204.6 110.4,204.6 112.3,204.6 114.2,204.6 116.0,204.6 117.9,204.6 119.8,204.6 121.7,204.6 123.5,204.6 125.4,204.6 127.3,204.6 129.2,204.6 131.0,204.6 132.9,204.6 134.8,204.6 136.7,204.6 138.5,204.6 140.4,204.6 142.3,204.6 144.2,204.6 146.1,204.6 147.9,204.6 149.8,204.6 151.7,204.6 153.6,204.6 155.4,204.6 157.3,204.6 159.2,204.6 161.1,204.6 162.9,204.6 164.8,204.6 166.7,204.6 168.6,204.6 170.5,194.5 172.3,182.1 174.2,172.7 176.1,163.6 178.0,155.1 179.8,157.2 181.7,162.5 183.6,165.8 185.5,169.0 187.3,172.5 189.2,176.6 191.1,181.0 193.0,185.4 194.8,190.8 196.7,195.9 198.6,199.9 200.5,202.6 202.4,204.3 204.2,204.7 206.1,204.7 208.0,204.6 209.9,204.6 211.7,204.6 213.6,204.6 215.5,204.6 217.4,204.6 219.2,204.6 221.1,204.6 223.0,204.6 224.9,204.6 226.8,204.6 228.6,204.6 230.5,204.6 232.4,204.6 234.3,204.6 236.1,204.6 238.0,204.6 239.9,204.6 241.8,204.6 243.6,204.6 245.5,204.4 247.4,204.3 249.3,204.1 251.1,204.0 253.0,203.8 254.9,203.9 256.8,203.9 258.7,203.9 260.5,203.9 262.4,203.9 264.3,203.9 266.2,203.9 268.0,203.8 269.9,203.8 271.8,203.8 273.7,203.8 275.5,203.8 277.4,203.8 279.3,203.8 281.2,203.8 283.1,203.8 284.9,203.8 286.8,203.8 288.7,203.7 290.6,203.7 292.4,203.7 294.3,203.7 296.2,203.7 298.1,203.7 299.9,203.7 301.8,203.7 303.7,203.7 305.6,203.7 307.4,203.7 309.3,203.7 311.2,203.7 313.1,203.7 315.0,203.7 316.8,203.7 318.7,203.7 320.6,203.7 322.5,203.7 324.3,203.7 326.2,203.7 328.1,203.7 330.0,203.7 331.8,203.7 333.7,203.9 335.6,204.1 337.5,204.3 339.4,204.5 341.2,204.6 343.1,204.6 345.0,204.6 346.9,204.6 348.7,204.6 350.6,204.6 352.5,204.6 354.4,204.6 356.2,204.6 358.1,204.6 360.0,204.6 361.9,204.6 363.7,204.6 365.6,204.6 367.5,204.6 369.4,204.6 371.3,204.6 373.1,204.6 375.0,204.6 376.9,204.6 378.8,204.6 380.6,204.6 382.5,204.6 384.4,204.6 386.3,204.6 388.1,204.6 390.0,204.6 391.9,204.6 393.8,204.6 395.7,204.6 397.5,204.6 399.4,204.6 401.3,204.6 403.2,204.6 405.0,204.6 406.9,204.6 408.8,204.6 410.7,204.6 412.5,204.6 414.4,204.6 416.3,202.9 418.2,202.2 420.1,176.6 421.9,162.2 423.8,146.6 425.7,133.5 427.6,122.2 429.4,135.3 431.3,137.6 433.2,142.9 435.1,148.8 436.9,152.7 438.8,157.1 440.7,161.2 442.6,164.1 444.4,166.0 446.3,167.5 448.2,169.0 450.1,170.2 452.0,171.7 453.8,173.5 455.7,174.7 457.6,170.5 459.5,165.6 461.3,162.3 463.2,157.5 465.1,155.0 467.0,158.3 468.8,163.4 470.7,167.3 472.6,172.7 474.5,174.0 476.4,181.4 478.2,187.8 480.1,193.1 482.0,197.7 483.9,204.3 485.7,204.5 487.6,204.6 489.5,204.6 491.4,204.6 493.2,204.6 495.1,204.6 497.0,204.6 498.9,204.6 500.7,204.6 502.6,204.6 504.5,204.6 506.4,204.6 508.3,204.6 510.1,204.6 512.0,204.6 513.9,204.6 515.8,204.6 517.6,204.6 519.5,204.6 521.4,204.6 523.3,204.3 525.1,204.1 527.0,203.9 528.9,203.7 530.8,203.6 532.7,203.8 534.5,203.8 536.4,203.8 538.3,203.8 540.2,203.8 542.0,203.8 543.9,203.8 545.8,203.8 547.7,203.8 549.5,203.9 551.4,204.1 553.3,204.3 555.2,204.5 557.0,204.6 558.9,204.6 560.8,204.6 562.7,204.6 564.6,204.6 566.4,204.6 568.3,204.6 570.2,204.6 572.1,204.6 573.9,204.6 575.8,204.6 577.7,204.6 579.6,204.6 581.4,204.6 583.3,204.6 585.2,204.6 587.1,204.6 589.0,204.6 590.8,204.6 592.7,204.6 594.6,204.6 596.5,204.6 598.3,204.6 600.2,204.6 602.1,204.6 604.0,204.6 605.8,204.6 607.7,204.6 609.6,204.6 611.5,204.6 613.3,204.6 615.2,204.6 617.1,204.6 619.0,204.6 620.9,193.6 622.7,181.6 624.6,170.4 626.5,160.2 628.4,150.8 630.2,153.9 632.1,158.2 634.0,161.3 635.9,166.0 637.7,169.2 639.6,171.8 641.5,175.3 643.4,181.0 645.3,179.0 647.1,178.8 649.0,178.2 650.9,176.0 652.8,171.2 654.6,170.4 656.5,166.3 658.4,172.2 660.3,178.6 662.1,185.7 664.0,193.3 665.9,203.4 667.8,202.6 669.6,201.7 671.5,200.9 673.4,200.7 675.3,200.4 677.2,200.5 679.0,200.6 680.9,201.4 682.8,202.2 684.7,203.0 686.5,203.8 688.4,204.6 690.3,204.6 692.2,204.6 694.0,204.6 695.9,204.6 697.8,204.6 699.7,204.6 701.6,204.6 703.4,204.6 705.3,204.6 707.2,204.6 709.1,204.6 710.9,204.6 712.8,204.5 714.7,204.5 716.6,194.8 718.4,187.3 720.3,180.3 722.2,173.9 724.1,165.6 725.9,167.9 727.8,169.5 729.7,171.9 731.6,173.0 733.5,176.7 735.3,180.1 737.2,181.9 739.1,178.9 741.0,176.9 742.8,174.5 744.7,172.1 746.6,170.5 748.5,170.5 750.3,168.4 752.2,165.3 754.1,165.3 756.0,165.3 757.9,168.8 759.7,175.4 761.6,182.7 763.5,185.8 765.4,187.4 767.2,186.7 769.1,186.5 771.0,186.4 772.9,186.9 774.7,188.7 776.6,191.1 778.5,190.5 780.4,189.2 782.3,186.6 784.1,183.6 786.0,181.0 787.9,179.6 789.8,177.7 791.6,175.6 793.5,173.7 795.4,170.7 797.3,169.8 799.1,169.5 801.0,171.8 802.9,175.0 804.8,179.6 806.6,181.2 808.5,183.1 810.4,184.7 812.3,185.3 814.2,184.6 816.0,184.0 817.9,184.2 819.8,185.0 821.7,187.3 823.5,191.6 825.4,194.9 827.3,197.2 829.2,198.2 831.0,197.5 832.9,188.4 834.8,183.9 836.7,180.2 838.6,176.1 840.4,172.0 842.3,175.4 844.2,176.0 846.1,174.7 847.9,175.0 849.8,174.8 851.7,175.1 853.6,175.0 855.4,176.2 857.3,175.5 859.2,176.3 861.1,177.3 862.9,179.6 864.8,182.1 866.7,184.3 868.6,185.4 870.5,186.4 872.3,186.7 874.2,186.8 876.1,187.9 878.0,192.1 879.8,195.5 881.7,195.7 883.6,195.0 885.5,194.3 887.3,190.8 889.2,186.3 891.1,184.3 893.0,182.8 894.9,182.5 896.7,183.5 898.6,185.1 900.5,186.9 902.4,188.6 904.2,189.3 906.1,187.7 908.0,185.9 909.9,184.1 911.7,182.9 913.6,183.8 915.5,187.8 917.4,190.8 919.2,195.8 921.1,200.5 923.0,202.9 924.9,202.9 926.8,204.6 928.6,196.7 930.5,187.7 932.4,179.2 934.3,167.1 936.1,156.0 938.0,150.5 939.9,146.0 941.8,144.8 943.6,150.2 945.5,155.6 947.4,165.0 949.3,175.4 951.2,183.3 953.0,187.4 954.9,193.0 956.8,196.9 958.7,199.9 960.5,200.0 962.4,202.7 964.3,202.8 966.2,200.8 968.0,200.8 969.9,199.2 971.8,196.2 973.7,191.7 975.5,188.2 977.4,182.1 979.3,178.2 981.2,175.1 983.1,174.4 984.9,174.5 986.8,175.1 988.7,177.7 990.6,179.0 992.4,179.0 994.3,181.6 996.2,184.8 998.1,186.7 999.9,188.9 1001.8,191.4 1003.7,191.6 1005.6,190.9 1007.5,191.4 1009.3,194.0 1011.2,193.8 1013.1,196.5 1015.0,199.5 1016.8,201.7 1018.7,201.7 1020.6,170.3 1022.5,157.7 1024.3,147.6 1026.2,139.0 1028.1,130.8 1030.0,153.8 1031.8,156.7 1033.7,157.4 1035.6,155.9 1037.5,155.4 1039.4,159.9 1041.2,165.0 1043.1,168.1 1045.0,173.7 1046.9,179.8 1048.7,183.7 1050.6,188.3 1052.5,194.7 1054.4,199.1 1056.2,201.7 1058.1,204.6 1060.0,204.6" fill="none" stroke="#b86842" stroke-width="3.2" stroke-linecap="round" stroke-linejoin="round" opacity="0.92" clip-path="url(#panel-force)"/>
<polyline points="86.0,204.6 87.9,204.6 89.8,204.6 91.6,204.6 93.5,204.6 95.4,204.6 97.3,204.6 99.1,204.6 101.0,204.6 102.9,204.6 104.8,204.6 106.6,204.6 108.5,204.6 110.4,204.6 112.3,204.6 114.2,204.6 116.0,204.6 117.9,204.6 119.8,204.6 121.7,204.6 123.5,204.6 125.4,204.6 127.3,204.6 129.2,204.6 131.0,204.6 132.9,204.6 134.8,204.6 136.7,204.6 138.5,204.6 140.4,204.6 142.3,204.6 144.2,204.6 146.1,204.6 147.9,204.6 149.8,204.6 151.7,204.6 153.6,204.6 155.4,204.6 157.3,195.9 159.2,177.4 161.1,140.5 162.9,113.6 164.8,92.0 166.7,92.0 168.6,92.0 170.5,92.0 172.3,94.1 174.2,110.2 176.1,132.2 178.0,154.0 179.8,173.6 181.7,191.6 183.6,202.0 185.5,204.1 187.3,204.5 189.2,204.6 191.1,204.6 193.0,204.6 194.8,204.6 196.7,204.6 198.6,204.6 200.5,204.6 202.4,204.6 204.2,204.6 206.1,204.6 208.0,204.6 209.9,204.6 211.7,204.6 213.6,204.6 215.5,204.6 217.4,204.6 219.2,204.6 221.1,204.6 223.0,204.6 224.9,204.6 226.8,204.6 228.6,204.6 230.5,204.6 232.4,204.6 234.3,204.6 236.1,204.6 238.0,204.6 239.9,204.6 241.8,204.6 243.6,204.6 245.5,204.6 247.4,204.6 249.3,204.6 251.1,204.6 253.0,204.6 254.9,204.6 256.8,204.6 258.7,204.6 260.5,204.6 262.4,204.6 264.3,204.6 266.2,204.6 268.0,204.6 269.9,204.6 271.8,204.6 273.7,204.6 275.5,204.6 277.4,204.6 279.3,204.3 281.2,204.2 283.1,204.0 284.9,203.8 286.8,203.7 288.7,203.9 290.6,203.9 292.4,203.9 294.3,203.8 296.2,203.8 298.1,203.8 299.9,203.8 301.8,203.8 303.7,203.8 305.6,203.8 307.4,203.8 309.3,203.8 311.2,203.8 313.1,203.8 315.0,203.8 316.8,203.7 318.7,203.7 320.6,203.7 322.5,203.7 324.3,203.7 326.2,203.7 328.1,203.7 330.0,203.7 331.8,203.7 333.7,203.7 335.6,203.7 337.5,203.7 339.4,203.7 341.2,203.7 343.1,203.7 345.0,203.7 346.9,203.7 348.7,203.7 350.6,203.9 352.5,204.1 354.4,204.3 356.2,204.5 358.1,204.6 360.0,204.6 361.9,204.6 363.7,204.6 365.6,204.6 367.5,204.6 369.4,204.6 371.3,204.6 373.1,204.6 375.0,204.6 376.9,204.6 378.8,204.6 380.6,204.6 382.5,204.6 384.4,204.6 386.3,204.6 388.1,204.6 390.0,204.6 391.9,204.6 393.8,204.6 395.7,204.6 397.5,204.6 399.4,204.6 401.3,204.6 403.2,204.6 405.0,204.6 406.9,204.6 408.8,204.6 410.7,204.6 412.5,204.6 414.4,204.6 416.3,204.6 418.2,204.6 420.1,204.6 421.9,204.6 423.8,204.6 425.7,204.6 427.6,204.6 429.4,204.6 431.3,204.6 433.2,204.6 435.1,204.6 436.9,204.6 438.8,204.6 440.7,204.6 442.6,204.6 444.4,204.6 446.3,204.6 448.2,204.6 450.1,204.6 452.0,183.7 453.8,170.9 455.7,160.6 457.6,145.7 459.5,131.3 461.3,140.2 463.2,135.2 465.1,137.6 467.0,136.8 468.8,143.8 470.7,139.0 472.6,149.6 474.5,153.7 476.4,169.5 478.2,176.9 480.1,193.7 482.0,200.8 483.9,204.6 485.7,204.6 487.6,204.6 489.5,204.6 491.4,204.6 493.2,204.6 495.1,204.6 497.0,204.6 498.9,204.6 500.7,204.6 502.6,204.6 504.5,204.6 506.4,204.7 508.3,204.5 510.1,204.5 512.0,204.5 513.9,204.4 515.8,203.7 517.6,202.9 519.5,201.6 521.4,201.5 523.3,198.2 525.1,194.3 527.0,188.6 528.9,168.3 530.8,145.5 532.7,125.3 534.5,108.2 536.4,92.0 538.3,92.0 540.2,92.0 542.0,92.0 543.9,92.0 545.8,92.0 547.7,92.0 549.5,92.0 551.4,109.7 553.3,134.1 555.2,157.5 557.0,181.4 558.9,204.6 560.8,204.6 562.7,204.6 564.6,204.6 566.4,204.6 568.3,204.6 570.2,204.6 572.1,204.6 573.9,204.6 575.8,204.6 577.7,204.6 579.6,204.6 581.4,204.6 583.3,204.6 585.2,204.6 587.1,204.6 589.0,204.6 590.8,204.6 592.7,204.6 594.6,204.6 596.5,204.6 598.3,204.6 600.2,204.6 602.1,204.6 604.0,204.6 605.8,204.6 607.7,204.6 609.6,204.6 611.5,204.6 613.3,204.6 615.2,204.6 617.1,204.6 619.0,204.6 620.9,204.6 622.7,204.6 624.6,204.6 626.5,204.6 628.4,204.6 630.2,204.6 632.1,204.6 634.0,204.6 635.9,204.6 637.7,204.6 639.6,204.6 641.5,204.6 643.4,204.6 645.3,204.6 647.1,204.6 649.0,204.6 650.9,204.6 652.8,204.6 654.6,204.6 656.5,204.6 658.4,204.6 660.3,204.6 662.1,204.6 664.0,204.6 665.9,204.6 667.8,204.6 669.6,204.6 671.5,204.6 673.4,204.6 675.3,204.6 677.2,204.6 679.0,204.6 680.9,204.6 682.8,204.6 684.7,204.6 686.5,204.6 688.4,204.6 690.3,204.6 692.2,204.6 694.0,204.6 695.9,204.6 697.8,204.6 699.7,204.6 701.6,204.6 703.4,204.6 705.3,204.6 707.2,204.6 709.1,204.6 710.9,204.6 712.8,204.6 714.7,204.6 716.6,204.6 718.4,204.6 720.3,204.6 722.2,204.6 724.1,204.6 725.9,204.6 727.8,204.6 729.7,204.6 731.6,204.6 733.5,204.6 735.3,204.6 737.2,204.6 739.1,204.6 741.0,204.6 742.8,204.6 744.7,204.6 746.6,204.6 748.5,204.6 750.3,204.6 752.2,204.6 754.1,204.6 756.0,204.6 757.9,204.6 759.7,204.6 761.6,204.6 763.5,204.6 765.4,204.6 767.2,204.6 769.1,204.6 771.0,204.6 772.9,204.6 774.7,204.6 776.6,204.6 778.5,204.6 780.4,204.6 782.3,204.6 784.1,204.6 786.0,204.6 787.9,204.6 789.8,204.6 791.6,204.6 793.5,204.6 795.4,204.6 797.3,204.6 799.1,204.6 801.0,204.6 802.9,204.6 804.8,204.6 806.6,204.6 808.5,204.6 810.4,204.6 812.3,204.6 814.2,204.6 816.0,204.6 817.9,204.6 819.8,204.6 821.7,204.6 823.5,204.6 825.4,204.6 827.3,204.6 829.2,204.6 831.0,204.6 832.9,204.6 834.8,204.6 836.7,204.6 838.6,204.6 840.4,204.6 842.3,204.6 844.2,204.6 846.1,204.6 847.9,204.6 849.8,204.6 851.7,204.6 853.6,204.6 855.4,204.6 857.3,204.6 859.2,204.6 861.1,204.6 862.9,204.6 864.8,204.6 866.7,204.6 868.6,204.6 870.5,204.6 872.3,204.6 874.2,204.6 876.1,204.6 878.0,204.6 879.8,204.6 881.7,204.6 883.6,204.6 885.5,204.6 887.3,204.6 889.2,204.6 891.1,204.6 893.0,204.6 894.9,204.6 896.7,204.6 898.6,204.6 900.5,204.6 902.4,204.6 904.2,204.6 906.1,204.6 908.0,204.6 909.9,204.6 911.7,204.6 913.6,204.6 915.5,204.6 917.4,204.6 919.2,204.6 921.1,204.6 923.0,204.6 924.9,204.6 926.8,204.6 928.6,204.6 930.5,204.6 932.4,204.6 934.3,204.6 936.1,204.6 938.0,204.6 939.9,204.6 941.8,204.6 943.6,204.6 945.5,204.6 947.4,204.6 949.3,204.6 951.2,204.6 953.0,204.6 954.9,204.6 956.8,204.6 958.7,204.6 960.5,204.6 962.4,204.6 964.3,204.6 966.2,204.6 968.0,204.5 969.9,204.3 971.8,204.2 973.7,204.0 975.5,203.9 977.4,203.8 979.3,203.8 981.2,203.8 983.1,203.8 984.9,203.8 986.8,204.0 988.7,204.1 990.6,204.3 992.4,204.5 994.3,204.6 996.2,204.6 998.1,204.6 999.9,204.6 1001.8,204.6 1003.7,204.6 1005.6,204.6 1007.5,204.6 1009.3,204.6 1011.2,204.6 1013.1,204.6 1015.0,204.6 1016.8,204.6 1018.7,204.6 1020.6,204.6 1022.5,204.6 1024.3,204.6 1026.2,204.6 1028.1,204.6 1030.0,204.6 1031.8,204.6 1033.7,204.6 1035.6,204.6 1037.5,204.6 1039.4,204.6 1041.2,204.6 1043.1,204.6 1045.0,204.6 1046.9,204.6 1048.7,204.6 1050.6,204.6 1052.5,204.6 1054.4,204.6 1056.2,204.6 1058.1,204.6 1060.0,204.6" fill="none" stroke="#6f7680" stroke-width="3.2" stroke-linecap="round" stroke-linejoin="round" opacity="0.92" clip-path="url(#panel-force)"/>
<polyline points="86.0,204.6 87.9,204.6 89.8,204.6 91.6,204.6 93.5,204.6 95.4,204.6 97.3,204.6 99.1,204.6 101.0,204.6 102.9,204.6 104.8,204.6 106.6,204.6 108.5,204.6 110.4,204.6 112.3,204.6 114.2,204.6 116.0,204.6 117.9,204.6 119.8,204.6 121.7,204.6 123.5,204.6 125.4,204.6 127.3,204.6 129.2,204.6 131.0,204.6 132.9,204.6 134.8,204.6 136.7,204.6 138.5,204.6 140.4,204.6 142.3,204.6 144.2,204.6 146.1,204.6 147.9,204.6 149.8,204.6 151.7,204.6 153.6,204.6 155.4,204.6 157.3,204.6 159.2,204.6 161.1,204.7 162.9,204.7 164.8,204.7 166.7,192.5 168.6,180.7 170.5,170.5 172.3,162.1 174.2,156.1 176.1,165.5 178.0,176.3 179.8,186.4 181.7,194.9 183.6,200.9 185.5,203.6 187.3,204.6 189.2,204.6 191.1,204.6 193.0,204.6 194.8,204.6 196.7,204.6 198.6,204.6 200.5,204.7 202.4,204.6 204.2,204.6 206.1,204.6 208.0,204.6 209.9,204.6 211.7,204.6 213.6,204.6 215.5,204.6 217.4,204.6 219.2,204.6 221.1,204.6 223.0,204.6 224.9,204.6 226.8,204.6 228.6,204.6 230.5,204.6 232.4,204.6 234.3,204.5 236.1,204.4 238.0,204.2 239.9,204.1 241.8,203.9 243.6,203.9 245.5,203.9 247.4,203.9 249.3,203.9 251.1,203.9 253.0,203.9 254.9,203.9 256.8,203.9 258.7,203.8 260.5,203.8 262.4,203.8 264.3,203.8 266.2,203.8 268.0,203.8 269.9,203.8 271.8,203.8 273.7,203.8 275.5,203.8 277.4,203.8 279.3,203.7 281.2,203.7 283.1,203.7 284.9,203.7 286.8,203.7 288.7,203.7 290.6,203.7 292.4,203.7 294.3,203.7 296.2,203.7 298.1,203.7 299.9,203.7 301.8,203.7 303.7,203.7 305.6,203.7 307.4,203.7 309.3,203.7 311.2,203.7 313.1,203.7 315.0,203.7 316.8,203.7 318.7,203.7 320.6,203.7 322.5,203.7 324.3,203.7 326.2,203.7 328.1,203.7 330.0,203.7 331.8,203.7 333.7,203.9 335.6,204.1 337.5,204.3 339.4,204.5 341.2,204.6 343.1,204.6 345.0,204.6 346.9,204.6 348.7,204.6 350.6,204.6 352.5,204.6 354.4,204.6 356.2,204.6 358.1,204.6 360.0,204.6 361.9,204.6 363.7,204.6 365.6,204.6 367.5,204.6 369.4,204.6 371.3,204.6 373.1,204.6 375.0,204.6 376.9,204.6 378.8,204.6 380.6,204.6 382.5,204.6 384.4,204.6 386.3,204.6 388.1,204.6 390.0,204.6 391.9,204.6 393.8,204.6 395.7,204.6 397.5,204.6 399.4,204.6 401.3,204.6 403.2,204.6 405.0,204.6 406.9,204.6 408.8,204.6 410.7,204.6 412.5,193.9 414.4,193.2 416.3,177.8 418.2,166.7 420.1,156.8 421.9,155.6 423.8,144.1 425.7,148.1 427.6,149.5 429.4,148.6 431.3,150.7 433.2,155.1 435.1,161.3 436.9,161.4 438.8,164.0 440.7,168.7 442.6,171.4 444.4,171.4 446.3,176.1 448.2,180.1 450.1,183.4 452.0,188.4 453.8,193.6 455.7,198.6 457.6,202.8 459.5,204.6 461.3,204.6 463.2,204.6 465.1,204.6 467.0,204.6 468.8,204.6 470.7,204.6 472.6,204.6 474.5,204.6 476.4,204.6 478.2,204.6 480.1,204.6 482.0,204.6 483.9,204.6 485.7,204.6 487.6,204.6 489.5,204.6 491.4,204.6 493.2,204.6 495.1,204.6 497.0,204.3 498.9,204.1 500.7,203.9 502.6,203.8 504.5,203.6 506.4,203.7 508.3,203.7 510.1,203.7 512.0,203.7 513.9,203.7 515.8,203.7 517.6,203.7 519.5,203.7 521.4,203.9 523.3,204.1 525.1,204.3 527.0,204.5 528.9,204.6 530.8,204.6 532.7,204.6 534.5,204.6 536.4,204.6 538.3,204.6 540.2,204.5 542.0,204.5 543.9,204.5 545.8,204.5 547.7,204.5 549.5,204.6 551.4,204.6 553.3,204.6 555.2,204.6 557.0,204.6 558.9,204.6 560.8,204.6 562.7,204.6 564.6,204.6 566.4,204.6 568.3,204.6 570.2,204.6 572.1,204.6 573.9,204.6 575.8,204.6 577.7,204.6 579.6,204.6 581.4,204.6 583.3,204.6 585.2,204.6 587.1,204.6 589.0,204.6 590.8,204.6 592.7,204.6 594.6,204.6 596.5,204.6 598.3,204.6 600.2,204.6 602.1,204.6 604.0,204.6 605.8,204.6 607.7,204.6 609.6,204.6 611.5,204.6 613.3,204.6 615.2,204.6 617.1,204.6 619.0,185.0 620.9,179.5 622.7,175.7 624.6,171.4 626.5,167.7 628.4,184.3 630.2,186.3 632.1,185.7 634.0,185.5 635.9,189.2 637.7,188.0 639.6,186.2 641.5,190.5 643.4,194.7 645.3,194.7 647.1,199.0 649.0,203.8 650.9,202.2 652.8,202.4 654.6,202.4 656.5,202.4 658.4,202.9 660.3,204.5 662.1,204.6 664.0,204.6 665.9,204.6 667.8,204.6 669.6,204.6 671.5,204.6 673.4,204.6 675.3,204.6 677.2,204.6 679.0,204.6 680.9,204.6 682.8,204.6 684.7,204.6 686.5,204.6 688.4,204.6 690.3,204.6 692.2,204.6 694.0,204.2 695.9,204.1 697.8,203.9 699.7,203.7 701.6,203.5 703.4,204.0 705.3,204.1 707.2,204.3 709.1,204.5 710.9,204.6 712.8,204.6 714.7,204.6 716.6,204.6 718.4,204.6 720.3,204.6 722.2,204.6 724.1,204.6 725.9,204.6 727.8,204.6 729.7,204.6 731.6,204.6 733.5,204.6 735.3,204.6 737.2,204.6 739.1,204.6 741.0,204.6 742.8,190.2 744.7,177.8 746.6,177.8 748.5,177.8 750.3,177.8 752.2,192.2 754.1,204.6 756.0,204.6 757.9,204.6 759.7,204.6 761.6,204.6 763.5,204.6 765.4,204.6 767.2,204.6 769.1,204.6 771.0,204.6 772.9,204.6 774.7,204.6 776.6,204.6 778.5,204.6 780.4,204.6 782.3,204.6 784.1,204.6 786.0,204.6 787.9,204.6 789.8,204.6 791.6,204.6 793.5,204.6 795.4,204.6 797.3,204.6 799.1,204.6 801.0,204.6 802.9,204.6 804.8,204.6 806.6,204.6 808.5,204.6 810.4,204.6 812.3,204.6 814.2,204.6 816.0,204.6 817.9,204.6 819.8,204.6 821.7,184.7 823.5,184.7 825.4,179.5 827.3,179.5 829.2,179.5 831.0,199.5 832.9,194.2 834.8,193.5 836.7,189.4 838.6,189.4 840.4,189.4 842.3,194.8 844.2,200.5 846.1,204.6 847.9,204.6 849.8,204.6 851.7,204.6 853.6,204.6 855.4,204.6 857.3,204.6 859.2,204.6 861.1,204.6 862.9,204.6 864.8,204.6 866.7,204.6 868.6,204.6 870.5,204.6 872.3,204.6 874.2,204.6 876.1,204.6 878.0,204.6 879.8,204.6 881.7,204.6 883.6,204.6 885.5,204.6 887.3,204.6 889.2,204.6 891.1,204.6 893.0,204.6 894.9,204.6 896.7,204.5 898.6,204.3 900.5,204.1 902.4,203.9 904.2,203.7 906.1,203.7 908.0,203.7 909.9,203.7 911.7,203.7 913.6,203.7 915.5,203.7 917.4,203.7 919.2,203.7 921.1,203.7 923.0,203.9 924.9,204.1 926.8,204.3 928.6,204.5 930.5,204.6 932.4,204.6 934.3,204.6 936.1,204.6 938.0,204.6 939.9,195.5 941.8,188.0 943.6,182.5 945.5,182.5 947.4,182.5 949.3,191.6 951.2,199.1 953.0,204.6 954.9,204.6 956.8,204.6 958.7,204.6 960.5,204.6 962.4,204.6 964.3,204.6 966.2,204.6 968.0,204.6 969.9,204.6 971.8,204.6 973.7,204.6 975.5,204.6 977.4,204.6 979.3,204.6 981.2,204.6 983.1,204.6 984.9,204.6 986.8,204.6 988.7,204.6 990.6,204.6 992.4,204.6 994.3,204.6 996.2,204.6 998.1,204.6 999.9,204.6 1001.8,204.6 1003.7,204.6 1005.6,194.9 1007.5,184.4 1009.3,177.4 1011.2,171.0 1013.1,165.1 1015.0,169.2 1016.8,173.8 1018.7,175.4 1020.6,176.4 1022.5,178.3 1024.3,184.0 1026.2,189.9 1028.1,195.3 1030.0,200.7 1031.8,204.6 1033.7,204.6 1035.6,204.6 1037.5,204.6 1039.4,204.6 1041.2,204.6 1043.1,204.6 1045.0,204.6 1046.9,204.6 1048.7,204.6 1050.6,204.6 1052.5,204.6 1054.4,204.6 1056.2,204.6 1058.1,204.6 1060.0,204.6" fill="none" stroke="#486b3e" stroke-width="3.2" stroke-linecap="round" stroke-linejoin="round" opacity="0.92" clip-path="url(#panel-force)"/>
<text x="56" y="228" font-family="Avenir Next, Trebuchet MS, sans-serif" font-size="15" font-weight="900" fill="#263f24">End-effector speed</text>
<line x1="86" y1="353" x2="1060" y2="353" stroke="#d7cab4" stroke-width="1.5"/>
<line x1="86" y1="240" x2="86" y2="353" stroke="#d7cab4" stroke-width="1.5"/>
<text x="38" y="353" font-family="Avenir Next, Trebuchet MS, sans-serif" font-size="12" fill="#5a6257">0</text>
<text x="30" y="245" font-family="Avenir Next, Trebuchet MS, sans-serif" font-size="12" fill="#5a6257">0.81</text>
<polyline points="86.0,345.2 87.9,344.2 89.8,343.6 91.6,341.2 93.5,341.9 95.4,342.9 97.3,344.0 99.1,345.7 101.0,347.4 102.9,348.1 104.8,347.8 106.6,345.5 108.5,339.3 110.4,330.1 112.3,319.4 114.2,308.8 116.0,298.8 117.9,290.9 119.8,285.4 121.7,281.6 123.5,278.9 125.4,277.4 127.3,277.4 129.2,278.3 131.0,279.4 132.9,280.3 134.8,281.3 136.7,283.0 138.5,285.4 140.4,287.7 142.3,289.3 144.2,290.2 146.1,289.3 147.9,286.9 149.8,284.3 151.7,282.1 153.6,280.1 155.4,278.3 157.3,276.7 159.2,275.3 161.1,273.8 162.9,272.9 164.8,272.4 166.7,272.3 168.6,272.8 170.5,277.0 172.3,290.0 174.2,305.1 176.1,319.7 178.0,333.1 179.8,342.5 181.7,343.4 183.6,342.5 185.5,342.8 187.3,344.2 189.2,345.9 191.1,347.7 193.0,348.6 194.8,348.4 196.7,347.8 198.6,347.3 200.5,346.1 202.4,344.0 204.2,340.9 206.1,337.1 208.0,332.8 209.9,328.5 211.7,325.2 213.6,322.2 215.5,318.1 217.4,313.3 219.2,308.1 221.1,302.2 223.0,296.0 224.9,290.8 226.8,285.8 228.6,280.4 230.5,275.2 232.4,270.6 234.3,265.9 236.1,261.1 238.0,256.9 239.9,253.8 241.8,251.0 243.6,248.1 245.5,245.8 247.4,243.8 249.3,241.5 251.1,240.0 253.0,240.0 254.9,240.0 256.8,240.0 258.7,240.0 260.5,240.0 262.4,240.0 264.3,241.1 266.2,242.7 268.0,244.8 269.9,246.6 271.8,248.4 273.7,250.6 275.5,252.9 277.4,255.5 279.3,258.9 281.2,263.1 283.1,267.9 284.9,273.3 286.8,279.4 288.7,285.9 290.6,292.1 292.4,297.1 294.3,300.7 296.2,302.4 298.1,302.6 299.9,301.6 301.8,299.8 303.7,297.6 305.6,295.3 307.4,292.8 309.3,290.4 311.2,288.6 313.1,287.5 315.0,287.3 316.8,288.4 318.7,291.0 320.6,294.6 322.5,298.3 324.3,302.1 326.2,305.9 328.1,309.8 330.0,314.0 331.8,318.8 333.7,323.7 335.6,328.9 337.5,334.0 339.4,338.6 341.2,341.4 343.1,341.6 345.0,338.4 346.9,331.9 348.7,322.8 350.6,313.4 352.5,305.6 354.4,301.0 356.2,298.3 358.1,297.3 360.0,297.6 361.9,298.0 363.7,300.4 365.6,302.4 367.5,302.8 369.4,301.7 371.3,299.5 373.1,294.1 375.0,288.9 376.9,285.0 378.8,282.3 380.6,280.1 382.5,278.3 384.4,277.1 386.3,275.9 388.1,275.2 390.0,274.9 391.9,274.4 393.8,273.7 395.7,272.9 397.5,272.0 399.4,271.2 401.3,270.6 403.2,270.5 405.0,270.9 406.9,271.3 408.8,271.9 410.7,272.6 412.5,272.8 414.4,272.9 416.3,272.9 418.2,276.2 420.1,287.0 421.9,300.5 423.8,315.4 425.7,330.8 427.6,343.0 429.4,348.0 431.3,350.5 433.2,351.6 435.1,352.0 436.9,352.3 438.8,352.3 440.7,352.4 442.6,352.4 444.4,352.2 446.3,351.7 448.2,351.0 450.1,350.2 452.0,349.6 453.8,349.5 455.7,349.8 457.6,349.7 459.5,348.1 461.3,345.6 463.2,342.0 465.1,337.5 467.0,333.4 468.8,330.4 470.7,327.8 472.6,326.1 474.5,325.1 476.4,324.7 478.2,325.6 480.1,327.6 482.0,329.8 483.9,331.2 485.7,331.5 487.6,329.6 489.5,326.1 491.4,321.4 493.2,316.3 495.1,311.2 497.0,306.3 498.9,301.1 500.7,295.5 502.6,290.2 504.5,285.0 506.4,280.3 508.3,276.7 510.1,274.1 512.0,272.7 513.9,272.4 515.8,272.9 517.6,273.9 519.5,275.3 521.4,277.1 523.3,278.8 525.1,281.0 527.0,284.8 528.9,289.3 530.8,293.7 532.7,298.6 534.5,303.1 536.4,306.2 538.3,308.4 540.2,310.3 542.0,311.9 543.9,312.8 545.8,313.2 547.7,313.0 549.5,312.5 551.4,316.9 553.3,322.9 555.2,329.2 557.0,336.1 558.9,342.4 560.8,342.9 562.7,341.6 564.6,339.5 566.4,336.4 568.3,333.4 570.2,330.8 572.1,328.6 573.9,327.2 575.8,325.9 577.7,324.7 579.6,323.7 581.4,322.9 583.3,322.0 585.2,321.1 587.1,320.1 589.0,318.5 590.8,316.1 592.7,313.2 594.6,310.7 596.5,308.3 598.3,306.0 600.2,303.9 602.1,302.1 604.0,300.3 605.8,298.0 607.7,295.4 609.6,292.5 611.5,289.7 613.3,286.9 615.2,284.5 617.1,282.8 619.0,282.2 620.9,289.9 622.7,303.0 624.6,317.2 626.5,331.5 628.4,345.6 630.2,351.7 632.1,352.5 634.0,352.6 635.9,352.5 637.7,352.4 639.6,352.4 641.5,352.4 643.4,352.4 645.3,352.3 647.1,351.6 649.0,349.7 650.9,346.9 652.8,343.3 654.6,339.7 656.5,337.9 658.4,338.7 660.3,340.7 662.1,341.8 664.0,341.8 665.9,339.6 667.8,334.7 669.6,328.5 671.5,322.6 673.4,317.1 675.3,312.0 677.2,307.2 679.0,302.6 680.9,299.9 682.8,299.9 684.7,303.0 686.5,309.1 688.4,317.8 690.3,326.6 692.2,332.8 694.0,334.4 695.9,332.8 697.8,328.9 699.7,323.3 701.6,318.0 703.4,313.3 705.3,308.9 707.2,304.9 709.1,301.0 710.9,297.5 712.8,295.8 714.7,295.6 716.6,298.5 718.4,309.4 720.3,321.1 722.2,332.4 724.1,342.9 725.9,351.0 727.8,351.4 729.7,350.9 731.6,350.6 733.5,350.9 735.3,350.9 737.2,351.3 739.1,352.1 741.0,352.6 742.8,352.7 744.7,352.8 746.6,352.8 748.5,352.8 750.3,352.9 752.2,352.6 754.1,351.5 756.0,350.9 757.9,350.5 759.7,349.9 761.6,349.7 763.5,350.6 765.4,351.2 767.2,351.2 769.1,351.0 771.0,351.3 772.9,351.4 774.7,351.3 776.6,351.7 778.5,352.4 780.4,352.5 782.3,352.6 784.1,352.6 786.0,352.7 787.9,352.8 789.8,352.8 791.6,352.8 793.5,352.5 795.4,352.2 797.3,351.9 799.1,351.6 801.0,351.4 802.9,351.6 804.8,351.8 806.6,352.0 808.5,352.4 810.4,352.6 812.3,352.6 814.2,352.7 816.0,352.6 817.9,352.5 819.8,352.5 821.7,352.4 823.5,351.8 825.4,351.5 827.3,351.2 829.2,350.8 831.0,350.8 832.9,351.2 834.8,351.5 836.7,351.4 838.6,351.4 840.4,351.1 842.3,351.0 844.2,350.9 846.1,351.3 847.9,351.7 849.8,352.0 851.7,352.4 853.6,352.6 855.4,352.7 857.3,352.7 859.2,352.8 861.1,352.8 862.9,352.9 864.8,352.8 866.7,352.5 868.6,352.2 870.5,351.7 872.3,351.3 874.2,350.9 876.1,350.9 878.0,351.0 879.8,350.8 881.7,350.3 883.6,349.5 885.5,348.4 887.3,347.6 889.2,347.6 891.1,348.0 893.0,349.1 894.9,350.5 896.7,351.5 898.6,352.2 900.5,352.7 902.4,352.8 904.2,352.8 906.1,352.9 908.0,352.8 909.9,352.6 911.7,352.5 913.6,352.2 915.5,351.8 917.4,351.2 919.2,350.5 921.1,349.5 923.0,348.3 924.9,346.9 926.8,344.7 928.6,342.0 930.5,340.6 932.4,341.5 934.3,343.3 936.1,346.1 938.0,349.7 939.9,352.2 941.8,352.7 943.6,352.6 945.5,352.5 947.4,352.5 949.3,352.5 951.2,352.5 953.0,352.7 954.9,352.5 956.8,351.7 958.7,350.7 960.5,350.2 962.4,349.8 964.3,349.4 966.2,349.4 968.0,349.5 969.9,349.2 971.8,349.0 973.7,349.7 975.5,350.5 977.4,351.2 979.3,351.8 981.2,352.1 983.1,352.2 984.9,352.2 986.8,352.4 988.7,352.7 990.6,352.8 992.4,352.9 994.3,352.9 996.2,352.9 998.1,352.8 999.9,352.7 1001.8,352.2 1003.7,351.7 1005.6,351.5 1007.5,351.2 1009.3,350.9 1011.2,350.5 1013.1,350.3 1015.0,349.6 1016.8,348.6 1018.7,347.5 1020.6,343.0 1022.5,341.5 1024.3,341.8 1026.2,343.1 1028.1,344.7 1030.0,350.1 1031.8,352.2 1033.7,352.8 1035.6,352.9 1037.5,352.9 1039.4,352.9 1041.2,352.8 1043.1,352.7 1045.0,352.7 1046.9,352.7 1048.7,352.6 1050.6,352.0 1052.5,350.7 1054.4,348.9 1056.2,347.1 1058.1,345.9 1060.0,344.6" fill="none" stroke="#b86842" stroke-width="3.2" stroke-linecap="round" stroke-linejoin="round" opacity="0.92" clip-path="url(#panel-eef)"/>
<polyline points="86.0,345.6 87.9,345.1 89.8,345.0 91.6,343.4 93.5,344.4 95.4,344.7 97.3,344.6 99.1,344.1 101.0,343.0 102.9,341.3 104.8,339.3 106.6,335.7 108.5,329.7 110.4,321.7 112.3,312.4 114.2,302.9 116.0,294.2 117.9,287.3 119.8,282.1 121.7,278.4 123.5,275.7 125.4,274.1 127.3,273.4 129.2,273.5 131.0,273.9 132.9,274.4 134.8,275.3 136.7,276.6 138.5,278.4 140.4,280.2 142.3,281.4 144.2,281.4 146.1,280.0 147.9,277.0 149.8,273.3 151.7,269.6 153.6,266.2 155.4,263.2 157.3,260.9 159.2,267.3 161.1,278.7 162.9,291.6 164.8,306.5 166.7,322.9 168.6,332.3 170.5,337.8 172.3,342.5 174.2,345.4 176.1,345.4 178.0,343.5 179.8,340.9 181.7,337.4 183.6,333.5 185.5,330.6 187.3,327.7 189.2,324.3 191.1,321.6 193.0,320.3 194.8,320.0 196.7,321.0 198.6,322.7 200.5,324.0 202.4,324.0 204.2,322.7 206.1,319.7 208.0,315.3 209.9,309.8 211.7,303.5 213.6,297.4 215.5,292.8 217.4,291.3 219.2,293.6 221.1,300.3 223.0,309.8 224.9,319.5 226.8,327.2 228.6,331.3 230.5,331.6 232.4,329.2 234.3,325.0 236.1,319.5 238.0,313.8 239.9,308.4 241.8,302.5 243.6,296.1 245.5,290.2 247.4,284.4 249.3,278.2 251.1,272.5 253.0,267.3 254.9,262.5 256.8,258.0 258.7,254.0 260.5,250.2 262.4,246.8 264.3,243.9 266.2,241.5 268.0,240.0 269.9,240.3 271.8,241.9 273.7,243.1 275.5,243.6 277.4,243.4 279.3,240.7 281.2,240.0 283.1,240.0 284.9,240.0 286.8,240.0 288.7,240.0 290.6,240.0 292.4,241.8 294.3,243.8 296.2,245.9 298.1,248.5 299.9,251.4 301.8,254.8 303.7,258.4 305.6,262.1 307.4,265.7 309.3,269.3 311.2,272.7 313.1,276.2 315.0,279.6 316.8,282.9 318.7,285.9 320.6,288.7 322.5,290.7 324.3,292.0 326.2,292.7 328.1,293.3 330.0,294.0 331.8,294.7 333.7,295.5 335.6,296.5 337.5,297.3 339.4,298.4 341.2,299.7 343.1,301.3 345.0,303.3 346.9,306.0 348.7,309.0 350.6,313.5 352.5,319.5 354.4,326.3 356.2,332.6 358.1,336.3 360.0,336.1 361.9,332.3 363.7,326.6 365.6,320.0 367.5,314.7 369.4,310.2 371.3,306.8 373.1,303.9 375.0,301.2 376.9,298.4 378.8,296.3 380.6,294.4 382.5,292.2 384.4,290.1 386.3,288.2 388.1,286.5 390.0,285.0 391.9,283.4 393.8,281.7 395.7,280.1 397.5,278.6 399.4,277.3 401.3,276.0 403.2,274.8 405.0,273.7 406.9,272.8 408.8,272.2 410.7,272.0 412.5,271.9 414.4,271.7 416.3,271.5 418.2,271.1 420.1,270.5 421.9,269.9 423.8,269.4 425.7,268.7 427.6,267.9 429.4,267.2 431.3,266.8 433.2,266.6 435.1,266.9 436.9,267.7 438.8,268.9 440.7,270.3 442.6,272.1 444.4,274.1 446.3,276.7 448.2,279.8 450.1,283.0 452.0,288.9 453.8,302.7 455.7,316.6 457.6,329.5 459.5,342.0 461.3,351.4 463.2,352.4 465.1,351.3 467.0,350.2 468.8,349.1 470.7,348.0 472.6,346.4 474.5,344.5 476.4,343.2 478.2,342.2 480.1,341.1 482.0,340.6 483.9,341.2 485.7,341.1 487.6,340.0 489.5,337.8 491.4,334.3 493.2,330.1 495.1,325.8 497.0,321.9 498.9,318.3 500.7,315.6 502.6,314.2 504.5,312.7 506.4,311.1 508.3,310.4 510.1,311.0 512.0,311.8 513.9,314.2 515.8,317.4 517.6,319.9 519.5,322.3 521.4,324.9 523.3,326.3 525.1,327.9 527.0,330.5 528.9,332.8 530.8,336.8 532.7,341.2 534.5,345.2 536.4,348.5 538.3,351.5 540.2,351.7 542.0,351.6 543.9,351.5 545.8,351.2 547.7,351.0 549.5,350.9 551.4,348.0 553.3,343.4 555.2,339.3 557.0,335.2 558.9,330.8 560.8,328.7 562.7,328.4 564.6,327.7 566.4,329.1 568.3,331.7 570.2,334.9 572.1,337.8 573.9,340.8 575.8,341.4 577.7,340.3 579.6,338.3 581.4,335.9 583.3,333.2 585.2,330.8 587.1,328.7 589.0,327.1 590.8,326.5 592.7,326.8 594.6,327.8 596.5,329.6 598.3,332.1 600.2,334.8 602.1,337.1 604.0,338.9 605.8,340.3 607.7,339.9 609.6,336.6 611.5,331.6 613.3,325.7 615.2,318.8 617.1,312.2 619.0,306.6 620.9,301.7 622.7,297.8 624.6,295.6 626.5,296.0 628.4,299.9 630.2,306.0 632.1,312.5 634.0,318.9 635.9,324.0 637.7,326.9 639.6,328.0 641.5,327.7 643.4,325.7 645.3,324.8 647.1,324.4 649.0,323.1 650.9,322.0 652.8,322.3 654.6,321.1 656.5,319.2 658.4,319.8 660.3,322.3 662.1,325.0 664.0,328.6 665.9,333.1 667.8,336.7 669.6,339.4 671.5,342.1 673.4,344.4 675.3,346.4 677.2,348.1 679.0,349.1 680.9,348.7 682.8,347.3 684.7,345.0 686.5,342.3 688.4,339.7 690.3,337.4 692.2,334.9 694.0,332.5 695.9,330.8 697.8,329.3 699.7,327.4 701.6,325.3 703.4,322.3 705.3,318.0 707.2,312.7 709.1,307.0 710.9,301.8 712.8,298.2 714.7,296.9 716.6,297.8 718.4,301.1 720.3,306.4 722.2,312.7 724.1,318.9 725.9,324.5 727.8,329.1 729.7,331.9 731.6,332.5 733.5,330.8 735.3,327.0 737.2,321.7 739.1,319.0 741.0,318.5 742.8,318.6 744.7,319.0 746.6,319.8 748.5,317.9 750.3,314.6 752.2,312.2 754.1,310.4 756.0,309.1 757.9,309.7 759.7,311.7 761.6,314.8 763.5,320.0 765.4,325.7 767.2,328.8 769.1,331.7 771.0,335.3 772.9,337.1 774.7,338.1 776.6,340.0 778.5,339.7 780.4,336.6 782.3,333.1 784.1,329.6 786.0,326.0 787.9,322.6 789.8,319.6 791.6,317.2 793.5,315.6 795.4,314.4 797.3,314.5 799.1,316.2 801.0,319.3 802.9,323.5 804.8,328.2 806.6,332.4 808.5,336.2 810.4,339.1 812.3,340.7 814.2,341.9 816.0,342.8 817.9,343.0 819.8,341.9 821.7,339.6 823.5,336.0 825.4,331.2 827.3,325.8 829.2,320.1 831.0,315.3 832.9,311.9 834.8,309.8 836.7,307.9 838.6,306.7 840.4,307.5 842.3,309.2 844.2,311.3 846.1,315.0 847.9,319.3 849.8,322.0 851.7,323.6 853.6,325.0 855.4,326.4 857.3,328.3 859.2,330.9 861.1,334.0 862.9,337.0 864.8,340.0 866.7,342.8 868.6,345.3 870.5,346.8 872.3,347.5 874.2,347.7 876.1,347.0 878.0,345.6 879.8,344.3 881.7,342.9 883.6,341.2 885.5,339.6 887.3,337.7 889.2,335.0 891.1,331.4 893.0,327.7 894.9,324.5 896.7,322.7 898.6,323.0 900.5,325.1 902.4,327.9 904.2,330.4 906.1,332.2 908.0,332.9 909.9,332.5 911.7,331.0 913.6,328.1 915.5,324.2 917.4,319.2 919.2,313.3 921.1,307.0 923.0,301.0 924.9,296.1 926.8,292.5 928.6,289.9 930.5,288.4 932.4,287.7 934.3,286.9 936.1,285.8 938.0,284.7 939.9,283.0 941.8,280.3 943.6,277.4 945.5,274.5 947.4,271.9 949.3,270.3 951.2,269.7 953.0,269.9 954.9,271.0 956.8,273.4 958.7,276.4 960.5,279.6 962.4,283.5 964.3,287.7 966.2,291.5 968.0,295.5 969.9,298.9 971.8,300.7 973.7,300.8 975.5,299.6 977.4,297.5 979.3,295.4 981.2,294.1 983.1,293.6 984.9,293.9 986.8,295.0 988.7,297.6 990.6,301.6 992.4,306.8 994.3,313.6 996.2,321.3 998.1,328.3 999.9,333.4 1001.8,336.3 1003.7,336.6 1005.6,334.9 1007.5,332.3 1009.3,329.5 1011.2,327.1 1013.1,325.5 1015.0,324.5 1016.8,324.2 1018.7,325.2 1020.6,329.5 1022.5,332.0 1024.3,333.7 1026.2,335.4 1028.1,336.4 1030.0,333.3 1031.8,331.3 1033.7,329.9 1035.6,327.4 1037.5,324.4 1039.4,322.3 1041.2,320.8 1043.1,318.9 1045.0,317.4 1046.9,316.1 1048.7,314.7 1050.6,313.3 1052.5,312.6 1054.4,312.6 1056.2,312.9 1058.1,313.1 1060.0,313.7" fill="none" stroke="#6f7680" stroke-width="3.2" stroke-linecap="round" stroke-linejoin="round" opacity="0.92" clip-path="url(#panel-eef)"/>
<polyline points="86.0,346.4 87.9,346.1 89.8,346.2 91.6,345.2 93.5,345.8 95.4,345.2 97.3,344.0 99.1,342.0 101.0,339.1 102.9,336.1 104.8,333.7 106.6,330.6 108.5,325.8 110.4,319.5 112.3,311.9 114.2,303.6 116.0,295.5 117.9,288.9 119.8,283.8 121.7,280.1 123.5,277.6 125.4,276.3 127.3,276.5 129.2,277.7 131.0,279.1 132.9,280.4 134.8,281.0 136.7,280.1 138.5,278.1 140.4,275.1 142.3,271.5 144.2,267.3 146.1,263.0 147.9,259.1 149.8,256.3 151.7,254.7 153.6,254.7 155.4,255.8 157.3,257.9 159.2,261.0 161.1,264.6 162.9,268.4 164.8,272.1 166.7,275.9 168.6,288.5 170.5,303.0 172.3,317.1 174.2,330.7 176.1,343.7 178.0,345.9 179.8,344.9 181.7,343.7 183.6,342.5 185.5,341.2 187.3,340.9 189.2,340.2 191.1,338.6 193.0,336.7 194.8,333.9 196.7,330.2 198.6,326.3 200.5,321.7 202.4,316.0 204.2,310.2 206.1,305.1 208.0,300.9 209.9,298.0 211.7,296.1 213.6,294.1 215.5,291.2 217.4,287.3 219.2,282.5 221.1,277.1 223.0,271.8 224.9,267.1 226.8,263.2 228.6,259.6 230.5,256.4 232.4,253.7 234.3,251.3 236.1,249.1 238.0,247.4 239.9,246.2 241.8,245.5 243.6,245.0 245.5,244.6 247.4,244.3 249.3,244.1 251.1,243.9 253.0,244.2 254.9,244.7 256.8,245.5 258.7,246.5 260.5,247.6 262.4,248.7 264.3,249.9 266.2,251.1 268.0,252.2 269.9,254.9 271.8,259.1 273.7,264.3 275.5,270.3 277.4,277.0 279.3,282.4 281.2,286.4 283.1,289.4 284.9,291.6 286.8,293.2 288.7,294.3 290.6,294.9 292.4,295.3 294.3,295.7 296.2,296.3 298.1,296.8 299.9,297.1 301.8,297.2 303.7,297.0 305.6,296.1 307.4,294.8 309.3,293.7 311.2,292.8 313.1,292.9 315.0,294.3 316.8,297.0 318.7,301.6 320.6,307.6 322.5,313.9 324.3,320.3 326.2,326.3 328.1,331.9 330.0,336.7 331.8,340.4 333.7,342.8 335.6,344.1 337.5,343.6 339.4,341.4 341.2,338.3 343.1,335.1 345.0,331.2 346.9,326.8 348.7,322.7 350.6,318.7 352.5,315.5 354.4,313.4 356.2,311.7 358.1,310.4 360.0,309.3 361.9,307.4 363.7,307.7 365.6,308.0 367.5,306.5 369.4,303.7 371.3,300.3 373.1,294.0 375.0,287.6 376.9,282.6 378.8,278.4 380.6,274.7 382.5,271.4 384.4,268.4 386.3,265.7 388.1,263.6 390.0,262.1 391.9,260.8 393.8,259.9 395.7,259.6 397.5,259.7 399.4,260.5 401.3,261.8 403.2,263.9 405.0,266.8 406.9,270.1 408.8,273.9 410.7,277.8 412.5,282.2 414.4,291.5 416.3,303.3 418.2,316.6 420.1,329.4 421.9,341.2 423.8,347.2 425.7,350.0 427.6,350.7 429.4,351.1 431.3,351.5 433.2,351.3 435.1,350.1 436.9,348.2 438.8,345.3 440.7,341.5 442.6,337.9 444.4,335.0 446.3,332.4 448.2,330.9 450.1,330.4 452.0,330.2 453.8,330.6 455.7,331.1 457.6,326.5 459.5,317.4 461.3,306.4 463.2,294.2 465.1,281.5 467.0,273.1 468.8,268.6 470.7,265.6 472.6,263.7 474.5,262.2 476.4,261.0 478.2,259.7 480.1,258.7 482.0,257.7 483.9,257.4 485.7,258.1 487.6,259.8 489.5,262.0 491.4,264.6 493.2,267.7 495.1,271.2 497.0,275.1 498.9,279.6 500.7,284.6 502.6,289.5 504.5,293.9 506.4,297.0 508.3,298.3 510.1,297.8 512.0,296.2 513.9,294.0 515.8,292.2 517.6,291.3 519.5,291.3 521.4,292.2 523.3,294.5 525.1,298.7 527.0,304.3 528.9,310.5 530.8,316.7 532.7,322.9 534.5,328.7 536.4,333.2 538.3,336.2 540.2,337.4 542.0,336.2 543.9,332.5 545.8,328.1 547.7,324.0 549.5,321.1 551.4,322.2 553.3,322.8 555.2,322.6 557.0,321.9 558.9,320.6 560.8,317.1 562.7,315.4 564.6,315.6 566.4,315.9 568.3,316.2 570.2,316.3 572.1,316.4 573.9,316.6 575.8,317.8 577.7,320.1 579.6,323.2 581.4,326.0 583.3,328.0 585.2,329.3 587.1,329.6 589.0,328.7 590.8,327.3 592.7,325.7 594.6,325.1 596.5,325.0 598.3,325.3 600.2,326.2 602.1,327.7 604.0,328.7 605.8,328.8 607.7,327.7 609.6,325.5 611.5,322.9 613.3,319.9 615.2,317.2 617.1,315.2 619.0,314.3 620.9,321.0 622.7,328.5 624.6,336.4 626.5,344.3 628.4,352.1 630.2,352.3 632.1,352.3 634.0,351.2 635.9,350.3 637.7,349.4 639.6,348.1 641.5,347.7 643.4,347.7 645.3,346.0 647.1,342.8 649.0,338.7 650.9,332.1 652.8,325.1 654.6,318.7 656.5,313.1 658.4,308.4 660.3,304.8 662.1,301.8 664.0,299.3 665.9,297.6 667.8,296.0 669.6,294.3 671.5,292.6 673.4,290.8 675.3,288.7 677.2,286.7 679.0,284.9 680.9,283.1 682.8,281.7 684.7,281.0 686.5,280.8 688.4,281.1 690.3,282.4 692.2,284.6 694.0,287.8 695.9,292.1 697.8,297.2 699.7,302.0 701.6,305.5 703.4,308.1 705.3,309.3 707.2,308.4 709.1,306.2 710.9,304.1 712.8,302.1 714.7,300.4 716.6,299.9 718.4,300.2 720.3,300.7 722.2,301.7 724.1,303.1 725.9,304.7 727.8,306.5 729.7,308.7 731.6,310.4 733.5,312.0 735.3,314.3 737.2,316.9 739.1,316.4 741.0,314.1 742.8,314.3 744.7,315.1 746.6,316.9 748.5,321.8 750.3,328.1 752.2,331.0 754.1,333.0 756.0,334.7 757.9,336.1 759.7,336.5 761.6,335.8 763.5,333.2 765.4,328.1 767.2,321.4 769.1,314.3 771.0,307.5 772.9,301.7 774.7,297.6 776.6,295.6 778.5,296.5 780.4,300.5 782.3,306.2 784.1,312.2 786.0,318.0 787.9,322.3 789.8,324.6 791.6,325.1 793.5,324.6 795.4,322.9 797.3,320.3 799.1,316.7 801.0,312.7 802.9,308.6 804.8,304.5 806.6,300.8 808.5,297.6 810.4,295.4 812.3,293.9 814.2,293.6 816.0,293.8 817.9,294.6 819.8,296.6 821.7,299.8 823.5,310.1 825.4,319.9 827.3,329.5 829.2,337.1 831.0,342.5 832.9,342.2 834.8,342.5 836.7,341.7 838.6,340.7 840.4,342.2 842.3,342.1 844.2,342.1 846.1,342.5 847.9,342.5 849.8,338.5 851.7,333.0 853.6,326.2 855.4,318.3 857.3,310.6 859.2,303.7 861.1,297.0 862.9,290.6 864.8,284.5 866.7,278.7 868.6,273.6 870.5,269.6 872.3,266.3 874.2,263.6 876.1,261.6 878.0,260.0 879.8,258.8 881.7,258.2 883.6,258.2 885.5,258.7 887.3,260.3 889.2,263.4 891.1,267.9 893.0,273.4 894.9,279.9 896.7,286.3 898.6,291.8 900.5,296.5 902.4,300.4 904.2,302.9 906.1,304.3 908.0,304.6 909.9,303.6 911.7,301.7 913.6,299.9 915.5,299.0 917.4,299.0 919.2,300.6 921.1,303.6 923.0,308.1 924.9,313.6 926.8,316.9 928.6,316.6 930.5,315.1 932.4,311.9 934.3,306.9 936.1,303.6 938.0,303.4 939.9,308.3 941.8,317.2 943.6,326.9 945.5,336.8 947.4,345.7 949.3,349.3 951.2,348.2 953.0,345.4 954.9,341.5 956.8,336.8 958.7,330.9 960.5,325.1 962.4,320.1 964.3,315.9 966.2,313.2 968.0,312.2 969.9,312.3 971.8,312.5 973.7,312.9 975.5,312.9 977.4,312.5 979.3,311.4 981.2,309.4 983.1,306.5 984.9,303.2 986.8,299.7 988.7,295.9 990.6,292.7 992.4,290.1 994.3,288.3 996.2,287.2 998.1,286.6 999.9,285.9 1001.8,285.1 1003.7,284.0 1005.6,285.2 1007.5,296.2 1009.3,307.9 1011.2,320.5 1013.1,334.0 1015.0,345.1 1016.8,347.3 1018.7,349.4 1020.6,350.9 1022.5,351.0 1024.3,349.7 1026.2,347.6 1028.1,345.3 1030.0,342.8 1031.8,340.8 1033.7,339.5 1035.6,338.2 1037.5,335.9 1039.4,332.2 1041.2,327.3 1043.1,322.0 1045.0,315.7 1046.9,309.4 1048.7,303.8 1050.6,298.7 1052.5,293.5 1054.4,289.2 1056.2,286.8 1058.1,285.2 1060.0,284.0" fill="none" stroke="#486b3e" stroke-width="3.2" stroke-linecap="round" stroke-linejoin="round" opacity="0.92" clip-path="url(#panel-eef)"/>
<text x="56" y="376" font-family="Avenir Next, Trebuchet MS, sans-serif" font-size="15" font-weight="900" fill="#263f24">Gripper speed</text>
<line x1="86" y1="501" x2="1060" y2="501" stroke="#d7cab4" stroke-width="1.5"/>
<line x1="86" y1="388" x2="86" y2="501" stroke="#d7cab4" stroke-width="1.5"/>
<text x="38" y="501" font-family="Avenir Next, Trebuchet MS, sans-serif" font-size="12" fill="#5a6257">0</text>
<text x="30" y="393" font-family="Avenir Next, Trebuchet MS, sans-serif" font-size="12" fill="#5a6257">0.15</text>
<polyline points="86.0,499.6 87.9,499.7 89.8,499.8 91.6,500.0 93.5,500.1 95.4,500.1 97.3,500.2 99.1,500.2 101.0,500.2 102.9,500.3 104.8,500.3 106.6,500.3 108.5,500.4 110.4,500.4 112.3,500.4 114.2,500.4 116.0,500.5 117.9,500.5 119.8,500.5 121.7,500.5 123.5,500.5 125.4,500.6 127.3,500.6 129.2,500.6 131.0,500.6 132.9,500.6 134.8,500.7 136.7,500.7 138.5,500.7 140.4,500.7 142.3,500.7 144.2,500.7 146.1,500.7 147.9,500.7 149.8,500.8 151.7,500.8 153.6,500.8 155.4,500.8 157.3,500.8 159.2,500.8 161.1,500.8 162.9,500.8 164.8,500.8 166.7,500.8 168.6,500.8 170.5,497.2 172.3,494.1 174.2,492.6 176.1,490.2 178.0,488.9 179.8,491.9 181.7,494.7 183.6,492.1 185.5,484.2 187.3,470.0 189.2,452.4 191.1,432.9 193.0,416.6 194.8,406.6 196.7,401.3 198.6,405.7 200.5,417.5 202.4,433.6 204.2,451.5 206.1,470.8 208.0,484.0 209.9,491.5 211.7,495.7 213.6,498.0 215.5,499.2 217.4,499.7 219.2,500.0 221.1,500.1 223.0,500.1 224.9,500.2 226.8,500.2 228.6,500.2 230.5,500.3 232.4,500.3 234.3,500.3 236.1,500.4 238.0,500.4 239.9,500.4 241.8,500.4 243.6,500.5 245.5,500.6 247.4,500.7 249.3,500.8 251.1,500.9 253.0,501.0 254.9,501.0 256.8,501.0 258.7,501.0 260.5,501.0 262.4,501.0 264.3,501.0 266.2,501.0 268.0,501.0 269.9,501.0 271.8,501.0 273.7,501.0 275.5,501.0 277.4,501.0 279.3,501.0 281.2,501.0 283.1,501.0 284.9,501.0 286.8,501.0 288.7,501.0 290.6,501.0 292.4,501.0 294.3,501.0 296.2,501.0 298.1,501.0 299.9,501.0 301.8,501.0 303.7,501.0 305.6,501.0 307.4,501.0 309.3,500.9 311.2,500.9 313.1,500.9 315.0,500.9 316.8,500.9 318.7,500.9 320.6,500.9 322.5,500.9 324.3,500.9 326.2,500.9 328.1,500.9 330.0,500.9 331.8,500.9 333.7,496.3 335.6,484.3 337.5,468.0 339.4,449.2 341.2,429.0 343.1,412.8 345.0,403.5 346.9,398.2 348.7,402.5 350.6,414.4 352.5,430.7 354.4,449.5 356.2,469.6 358.1,483.4 360.0,491.1 361.9,495.5 363.7,497.8 365.6,499.1 367.5,499.7 369.4,500.0 371.3,500.1 373.1,500.1 375.0,500.2 376.9,500.2 378.8,500.2 380.6,500.3 382.5,500.3 384.4,500.3 386.3,500.4 388.1,500.4 390.0,500.4 391.9,500.4 393.8,500.5 395.7,500.5 397.5,500.5 399.4,500.5 401.3,500.5 403.2,500.6 405.0,500.6 406.9,500.6 408.8,500.6 410.7,500.6 412.5,500.6 414.4,500.7 416.3,500.7 418.2,497.7 420.1,494.0 421.9,491.8 423.8,490.8 425.7,490.4 427.6,493.3 429.4,497.0 431.3,499.2 433.2,500.2 435.1,500.6 436.9,500.6 438.8,500.5 440.7,500.4 442.6,500.1 444.4,499.5 446.3,498.8 448.2,497.7 450.1,496.8 452.0,496.2 453.8,496.4 455.7,497.0 457.6,493.9 459.5,485.2 461.3,473.4 463.2,459.0 465.1,443.5 467.0,431.1 468.8,423.7 470.7,417.6 472.6,420.0 474.5,426.6 476.4,431.9 478.2,439.1 480.1,447.5 482.0,453.8 483.9,459.6 485.7,469.2 487.6,478.1 489.5,487.9 491.4,493.6 493.2,496.8 495.1,498.5 497.0,499.4 498.9,499.9 500.7,500.1 502.6,500.1 504.5,500.2 506.4,500.2 508.3,500.3 510.1,500.3 512.0,500.3 513.9,500.3 515.8,500.4 517.6,500.4 519.5,500.4 521.4,500.5 523.3,500.5 525.1,500.6 527.0,500.7 528.9,500.8 530.8,500.9 532.7,501.0 534.5,501.0 536.4,501.0 538.3,501.0 540.2,501.0 542.0,501.0 543.9,501.0 545.8,501.0 547.7,501.0 549.5,496.3 551.4,496.2 553.3,495.4 555.2,495.0 557.0,494.7 558.9,495.8 560.8,495.8 562.7,494.1 564.6,484.0 566.4,468.7 568.3,454.0 570.2,434.3 572.1,416.0 573.9,405.3 575.8,399.3 577.7,403.1 579.6,414.7 581.4,430.9 583.3,449.6 585.2,469.7 587.1,483.4 589.0,491.1 590.8,495.5 592.7,497.9 594.6,499.1 596.5,499.7 598.3,500.0 600.2,500.1 602.1,500.1 604.0,500.2 605.8,500.2 607.7,500.2 609.6,500.3 611.5,500.3 613.3,500.3 615.2,500.3 617.1,500.4 619.0,500.4 620.9,499.0 622.7,498.6 624.6,498.6 626.5,498.6 628.4,498.6 630.2,500.1 632.1,500.5 634.0,500.5 635.9,497.2 637.7,497.2 639.6,496.7 641.5,496.5 643.4,496.4 645.3,497.2 647.1,489.1 649.0,477.9 650.9,464.3 652.8,449.3 654.6,433.7 656.5,420.4 658.4,399.6 660.3,390.9 662.1,393.1 664.0,407.6 665.9,426.4 667.8,458.8 669.6,481.2 671.5,494.0 673.4,497.6 675.3,500.3 677.2,500.3 679.0,500.3 680.9,499.4 682.8,491.2 684.7,477.1 686.5,459.7 688.4,440.3 690.3,420.9 692.2,408.0 694.0,400.8 695.9,404.0 697.8,415.3 699.7,431.2 701.6,449.8 703.4,469.8 705.3,483.4 707.2,491.2 709.1,495.5 710.9,497.2 712.8,497.6 714.7,497.8 716.6,496.3 718.4,496.0 720.3,496.6 722.2,497.3 724.1,497.3 725.9,499.0 727.8,498.7 729.7,497.6 731.6,497.5 733.5,498.0 735.3,498.1 737.2,498.9 739.1,500.1 741.0,500.3 742.8,500.5 744.7,500.6 746.6,500.7 748.5,500.9 750.3,500.8 752.2,497.6 754.1,495.1 756.0,493.9 757.9,493.4 759.7,491.4 761.6,493.3 763.5,495.3 765.4,494.1 767.2,486.8 769.1,487.6 771.0,485.2 772.9,482.1 774.7,482.3 776.6,489.1 778.5,489.6 780.4,493.0 782.3,496.4 784.1,498.4 786.0,499.4 787.9,499.9 789.8,500.2 791.6,500.2 793.5,499.8 795.4,499.5 797.3,499.2 799.1,498.9 801.0,498.9 802.9,499.3 804.8,499.4 806.6,499.7 808.5,500.1 810.4,500.3 812.3,500.3 814.2,500.4 816.0,500.2 817.9,500.2 819.8,500.2 821.7,500.2 823.5,499.8 825.4,499.9 827.3,499.4 829.2,499.0 831.0,499.1 832.9,496.1 834.8,495.8 836.7,495.7 838.6,495.5 840.4,494.9 842.3,497.9 844.2,498.3 846.1,496.3 847.9,496.9 849.8,495.7 851.7,496.1 853.6,496.2 855.4,498.9 857.3,498.9 859.2,500.7 861.1,499.3 862.9,498.4 864.8,497.9 866.7,497.3 868.6,496.8 870.5,497.5 872.3,498.0 874.2,497.9 876.1,498.2 878.0,498.4 879.8,498.7 881.7,498.8 883.6,499.2 885.5,499.1 887.3,498.1 889.2,497.9 891.1,497.8 893.0,497.9 894.9,498.3 896.7,499.4 898.6,500.0 900.5,500.5 902.4,500.6 904.2,500.6 906.1,497.5 908.0,497.2 909.9,495.2 911.7,494.8 913.6,493.6 915.5,495.7 917.4,494.8 919.2,496.1 921.1,496.1 923.0,497.1 924.9,498.1 926.8,495.6 928.6,492.5 930.5,490.5 932.4,490.3 934.3,490.4 936.1,494.1 938.0,497.9 939.9,500.3 941.8,498.2 943.6,498.0 945.5,497.8 947.4,497.8 949.3,497.9 951.2,500.1 953.0,500.4 954.9,500.1 956.8,499.9 958.7,499.5 960.5,499.4 962.4,499.3 964.3,499.6 966.2,499.7 968.0,500.0 969.9,500.0 971.8,499.7 973.7,499.9 975.5,499.9 977.4,499.6 979.3,499.2 981.2,499.6 983.1,499.5 984.9,499.6 986.8,500.0 988.7,500.6 990.6,500.7 992.4,500.8 994.3,500.8 996.2,500.7 998.1,500.7 999.9,500.6 1001.8,500.4 1003.7,496.9 1005.6,493.2 1007.5,492.9 1009.3,491.3 1011.2,489.6 1013.1,491.9 1015.0,495.1 1016.8,495.0 1018.7,496.6 1020.6,495.6 1022.5,494.1 1024.3,494.6 1026.2,494.9 1028.1,495.1 1030.0,498.1 1031.8,500.7 1033.7,500.8 1035.6,500.8 1037.5,500.8 1039.4,500.7 1041.2,500.6 1043.1,500.5 1045.0,500.5 1046.9,500.3 1048.7,500.4 1050.6,500.5 1052.5,500.5 1054.4,500.4 1056.2,500.5 1058.1,500.4 1060.0,500.4" fill="none" stroke="#b86842" stroke-width="3.2" stroke-linecap="round" stroke-linejoin="round" opacity="0.92" clip-path="url(#panel-gripper)"/>
<polyline points="86.0,499.6 87.9,499.7 89.8,499.8 91.6,500.0 93.5,500.1 95.4,500.1 97.3,500.2 99.1,500.2 101.0,500.2 102.9,500.3 104.8,500.3 106.6,500.3 108.5,500.4 110.4,500.4 112.3,500.4 114.2,500.4 116.0,500.5 117.9,500.5 119.8,500.5 121.7,500.5 123.5,500.5 125.4,500.6 127.3,500.6 129.2,500.6 131.0,500.6 132.9,500.6 134.8,500.6 136.7,500.7 138.5,500.7 140.4,500.7 142.3,500.7 144.2,500.7 146.1,500.7 147.9,500.7 149.8,500.8 151.7,500.8 153.6,500.8 155.4,500.8 157.3,499.3 159.2,491.7 161.1,483.9 162.9,477.5 164.8,473.1 166.7,471.7 168.6,477.5 170.5,484.0 172.3,486.5 174.2,481.9 176.1,473.0 178.0,460.4 179.8,444.2 181.7,428.3 183.6,416.5 185.5,406.9 187.3,414.3 189.2,429.7 191.1,439.4 193.0,444.9 194.8,448.0 196.7,435.3 198.6,416.6 200.5,405.6 202.4,406.6 204.2,416.8 206.1,432.0 208.0,450.2 209.9,470.1 211.7,483.6 213.6,491.3 215.5,495.5 217.4,494.5 219.2,484.6 221.1,469.4 223.0,451.3 224.9,431.5 226.8,414.2 228.6,404.3 230.5,398.7 232.4,402.8 234.3,414.6 236.1,430.8 238.0,449.5 239.9,469.7 241.8,483.4 243.6,491.1 245.5,495.5 247.4,497.8 249.3,499.1 251.1,499.7 253.0,500.0 254.9,500.1 256.8,500.1 258.7,500.2 260.5,500.2 262.4,500.2 264.3,500.3 266.2,500.3 268.0,500.3 269.9,500.3 271.8,500.4 273.7,500.4 275.5,500.4 277.4,500.5 279.3,500.5 281.2,500.7 283.1,500.8 284.9,500.9 286.8,501.0 288.7,501.0 290.6,501.0 292.4,501.0 294.3,501.0 296.2,501.0 298.1,501.0 299.9,501.0 301.8,501.0 303.7,501.0 305.6,501.0 307.4,501.0 309.3,501.0 311.2,501.0 313.1,501.0 315.0,501.0 316.8,501.0 318.7,501.0 320.6,501.0 322.5,501.0 324.3,501.0 326.2,501.0 328.1,501.0 330.0,501.0 331.8,501.0 333.7,501.0 335.6,501.0 337.5,501.0 339.4,500.9 341.2,500.9 343.1,500.9 345.0,500.9 346.9,500.9 348.7,500.9 350.6,496.3 352.5,484.3 354.4,467.9 356.2,449.2 358.1,429.0 360.0,412.8 361.9,403.5 363.7,398.3 365.6,402.5 367.5,414.5 369.4,430.8 371.3,449.5 373.1,469.6 375.0,483.3 376.9,491.1 378.8,495.4 380.6,497.8 382.5,499.1 384.4,499.7 386.3,500.0 388.1,500.1 390.0,500.1 391.9,500.2 393.8,500.2 395.7,500.2 397.5,500.3 399.4,500.3 401.3,500.3 403.2,500.3 405.0,500.4 406.9,500.4 408.8,500.4 410.7,500.5 412.5,500.5 414.4,500.5 416.3,500.5 418.2,500.5 420.1,500.6 421.9,500.6 423.8,500.6 425.7,500.6 427.6,500.6 429.4,500.6 431.3,500.7 433.2,500.7 435.1,500.7 436.9,500.7 438.8,500.7 440.7,500.7 442.6,500.7 444.4,500.8 446.3,500.8 448.2,500.8 450.1,500.8 452.0,498.1 453.8,494.8 455.7,494.7 457.6,493.4 459.5,493.3 461.3,495.9 463.2,486.6 465.1,472.7 467.0,458.5 468.8,447.3 470.7,428.2 472.6,425.3 474.5,433.2 476.4,419.6 478.2,401.4 480.1,399.7 482.0,403.3 483.9,402.7 485.7,428.0 487.6,455.5 489.5,475.3 491.4,486.6 493.2,492.9 495.1,496.4 497.0,498.4 498.9,499.3 500.7,499.8 502.6,500.0 504.5,500.1 506.4,499.9 508.3,500.0 510.1,500.0 512.0,500.0 513.9,499.9 515.8,500.0 517.6,499.9 519.5,499.0 521.4,499.0 523.3,498.6 525.1,498.5 527.0,498.6 528.9,498.5 530.8,498.3 532.7,498.9 534.5,499.2 536.4,499.0 538.3,499.8 540.2,499.6 542.0,499.0 543.9,498.2 545.8,497.7 547.7,497.2 549.5,497.0 551.4,474.2 553.3,435.1 555.2,416.9 557.0,415.6 558.9,410.5 560.8,421.1 562.7,444.4 564.6,444.4 566.4,440.6 568.3,443.9 570.2,445.9 572.1,447.0 573.9,447.6 575.8,433.6 577.7,415.5 579.6,405.0 581.4,406.3 583.3,416.6 585.2,431.9 587.1,450.2 589.0,470.0 590.8,483.6 592.7,491.2 594.6,495.5 596.5,497.9 598.3,499.1 600.2,499.7 602.1,500.0 604.0,500.1 605.8,500.1 607.7,500.2 609.6,500.2 611.5,496.2 613.3,496.3 615.2,495.5 617.1,495.1 619.0,491.9 620.9,484.8 622.7,468.9 624.6,451.4 626.5,432.0 628.4,414.5 630.2,404.5 632.1,398.8 634.0,402.8 635.9,414.6 637.7,430.8 639.6,449.5 641.5,469.7 643.4,483.4 645.3,491.1 647.1,495.5 649.0,497.8 650.9,499.1 652.8,499.7 654.6,500.0 656.5,500.1 658.4,496.3 660.3,484.9 662.1,468.9 664.0,450.5 665.9,430.6 667.8,413.7 669.6,404.0 671.5,398.5 673.4,402.7 675.3,414.5 677.2,430.8 679.0,449.5 680.9,469.7 682.8,483.4 684.7,491.1 686.5,495.5 688.4,497.9 690.3,499.1 692.2,499.7 694.0,500.0 695.9,500.1 697.8,500.1 699.7,500.2 701.6,500.2 703.4,500.2 705.3,500.3 707.2,500.3 709.1,496.1 710.9,484.4 712.8,468.3 714.7,449.7 716.6,429.7 718.4,413.2 720.3,403.7 722.2,398.4 724.1,402.6 725.9,414.5 727.8,430.8 729.7,449.5 731.6,469.6 733.5,483.4 735.3,491.1 737.2,495.5 739.1,497.8 741.0,499.1 742.8,499.7 744.7,500.0 746.6,500.1 748.5,500.1 750.3,500.2 752.2,500.2 754.1,500.2 756.0,500.3 757.9,496.1 759.7,484.5 761.6,468.4 763.5,449.8 765.4,429.9 767.2,427.7 769.1,430.9 771.0,432.8 772.9,433.9 774.7,434.5 776.6,427.7 778.5,428.7 780.4,438.7 782.3,454.0 784.1,472.2 786.0,484.8 787.9,491.9 789.8,495.9 791.6,498.1 793.5,499.2 795.4,499.8 797.3,500.0 799.1,496.3 801.0,485.0 802.9,469.1 804.8,450.6 806.6,430.7 808.5,413.8 810.4,404.0 812.3,398.6 814.2,402.7 816.0,414.5 817.9,430.8 819.8,449.5 821.7,469.7 823.5,483.4 825.4,491.1 827.3,495.5 829.2,497.9 831.0,495.6 832.9,496.3 834.8,495.5 836.7,495.1 838.6,494.9 840.4,495.0 842.3,483.9 844.2,469.2 846.1,451.3 847.9,431.7 849.8,414.4 851.7,404.4 853.6,398.7 855.4,402.8 857.3,414.6 859.2,430.8 861.1,449.5 862.9,469.7 864.8,483.4 866.7,491.1 868.6,495.5 870.5,497.9 872.3,499.1 874.2,499.7 876.1,500.0 878.0,500.1 879.8,500.1 881.7,500.2 883.6,500.2 885.5,500.2 887.3,500.3 889.2,500.3 891.1,496.1 893.0,484.4 894.9,468.3 896.7,449.7 898.6,429.7 900.5,413.2 902.4,403.7 904.2,398.4 906.1,402.6 908.0,414.5 909.9,430.8 911.7,449.5 913.6,469.6 915.5,483.4 917.4,491.1 919.2,495.5 921.1,497.8 923.0,499.1 924.9,496.1 926.8,496.5 928.6,495.6 930.5,495.1 932.4,494.9 934.3,498.4 936.1,498.3 938.0,499.3 939.9,499.8 941.8,500.0 943.6,500.1 945.5,500.1 947.4,500.2 949.3,500.2 951.2,500.2 953.0,500.3 954.9,500.3 956.8,500.3 958.7,500.4 960.5,500.4 962.4,500.4 964.3,500.4 966.2,500.5 968.0,500.6 969.9,500.7 971.8,500.8 973.7,500.9 975.5,501.0 977.4,501.0 979.3,501.0 981.2,500.9 983.1,500.9 984.9,500.9 986.8,496.3 988.7,484.3 990.6,467.9 992.4,449.2 994.3,429.0 996.2,412.8 998.1,403.5 999.9,398.2 1001.8,402.5 1003.7,414.4 1005.6,430.7 1007.5,449.5 1009.3,469.6 1011.2,483.4 1013.1,491.1 1015.0,495.5 1016.8,497.8 1018.7,499.1 1020.6,499.7 1022.5,500.0 1024.3,500.1 1026.2,500.1 1028.1,500.2 1030.0,500.2 1031.8,500.2 1033.7,500.3 1035.6,500.3 1037.5,500.3 1039.4,500.3 1041.2,500.4 1043.1,500.4 1045.0,500.4 1046.9,500.5 1048.7,496.0 1050.6,495.9 1052.5,493.1 1054.4,492.8 1056.2,491.3 1058.1,494.6 1060.0,492.7" fill="none" stroke="#6f7680" stroke-width="3.2" stroke-linecap="round" stroke-linejoin="round" opacity="0.92" clip-path="url(#panel-gripper)"/>
<polyline points="86.0,499.6 87.9,499.7 89.8,499.8 91.6,500.0 93.5,500.1 95.4,500.1 97.3,500.2 99.1,500.2 101.0,500.2 102.9,500.3 104.8,500.3 106.6,500.3 108.5,500.4 110.4,500.4 112.3,500.4 114.2,500.4 116.0,500.5 117.9,500.5 119.8,500.5 121.7,500.5 123.5,500.5 125.4,500.6 127.3,500.6 129.2,500.6 131.0,500.6 132.9,500.6 134.8,500.6 136.7,500.7 138.5,500.7 140.4,500.7 142.3,500.7 144.2,500.7 146.1,500.7 147.9,500.7 149.8,500.8 151.7,500.8 153.6,500.8 155.4,500.8 157.3,500.1 159.2,500.1 161.1,500.2 162.9,500.1 164.8,500.1 166.7,499.7 168.6,498.0 170.5,497.1 172.3,492.1 174.2,479.3 176.1,464.1 178.0,447.7 179.8,429.4 181.7,414.1 183.6,405.9 185.5,400.8 187.3,404.5 189.2,415.7 191.1,431.4 193.0,449.9 194.8,469.8 196.7,483.4 198.6,491.2 200.5,495.5 202.4,497.8 204.2,499.1 206.1,499.7 208.0,500.0 209.9,500.1 211.7,500.1 213.6,500.2 215.5,500.2 217.4,500.2 219.2,500.3 221.1,500.3 223.0,500.3 224.9,500.4 226.8,500.4 228.6,500.4 230.5,500.4 232.4,500.5 234.3,500.6 236.1,500.7 238.0,500.8 239.9,500.9 241.8,501.0 243.6,501.0 245.5,501.0 247.4,501.0 249.3,501.0 251.1,501.0 253.0,501.0 254.9,501.0 256.8,501.0 258.7,501.0 260.5,501.0 262.4,501.0 264.3,501.0 266.2,501.0 268.0,501.0 269.9,501.0 271.8,501.0 273.7,501.0 275.5,501.0 277.4,501.0 279.3,501.0 281.2,501.0 283.1,501.0 284.9,501.0 286.8,501.0 288.7,501.0 290.6,501.0 292.4,501.0 294.3,501.0 296.2,501.0 298.1,501.0 299.9,501.0 301.8,501.0 303.7,501.0 305.6,501.0 307.4,501.0 309.3,501.0 311.2,501.0 313.1,501.0 315.0,501.0 316.8,501.0 318.7,501.0 320.6,501.0 322.5,501.0 324.3,501.0 326.2,501.0 328.1,501.0 330.0,501.0 331.8,501.0 333.7,496.3 335.6,484.3 337.5,468.0 339.4,449.2 341.2,429.0 343.1,412.8 345.0,403.5 346.9,398.2 348.7,402.5 350.6,414.4 352.5,430.7 354.4,449.5 356.2,469.6 358.1,483.4 360.0,491.1 361.9,495.5 363.7,497.8 365.6,499.1 367.5,499.7 369.4,500.0 371.3,500.1 373.1,500.1 375.0,500.2 376.9,500.2 378.8,500.2 380.6,500.3 382.5,500.3 384.4,500.3 386.3,500.3 388.1,500.4 390.0,500.4 391.9,500.4 393.8,500.5 395.7,500.5 397.5,500.5 399.4,500.5 401.3,500.5 403.2,500.6 405.0,500.6 406.9,500.6 408.8,500.6 410.7,500.6 412.5,500.6 414.4,500.0 416.3,499.0 418.2,498.1 420.1,497.5 421.9,497.0 423.8,497.1 425.7,498.1 427.6,498.9 429.4,499.2 431.3,499.7 433.2,496.4 435.1,487.4 436.9,475.7 438.8,460.7 440.7,444.9 442.6,430.6 444.4,419.7 446.3,409.8 448.2,407.2 450.1,408.6 452.0,415.5 453.8,428.7 455.7,446.7 457.6,462.6 459.5,475.9 461.3,486.5 463.2,492.8 465.1,496.4 467.0,498.3 468.8,499.3 470.7,499.8 472.6,500.0 474.5,500.1 476.4,500.1 478.2,500.2 480.1,500.2 482.0,500.3 483.9,500.3 485.7,500.3 487.6,500.3 489.5,500.4 491.4,500.4 493.2,500.4 495.1,500.5 497.0,500.5 498.9,500.6 500.7,500.7 502.6,500.8 504.5,500.9 506.4,501.0 508.3,501.0 510.1,501.0 512.0,501.0 513.9,501.0 515.8,501.0 517.6,501.0 519.5,501.0 521.4,496.3 523.3,484.3 525.1,468.0 527.0,449.2 528.9,443.4 530.8,439.9 532.7,437.9 534.5,436.8 536.4,436.1 538.3,421.4 540.2,415.7 542.0,421.9 543.9,434.9 545.8,451.9 547.7,471.0 549.5,484.0 551.4,491.5 553.3,495.7 555.2,497.9 557.0,499.1 558.9,499.7 560.8,500.0 562.7,500.1 564.6,500.1 566.4,500.2 568.3,500.2 570.2,500.2 572.1,500.3 573.9,500.3 575.8,496.1 577.7,496.2 579.6,495.4 581.4,495.0 583.3,494.9 585.2,499.0 587.1,498.9 589.0,499.6 590.8,499.9 592.7,500.1 594.6,500.1 596.5,500.1 598.3,500.2 600.2,500.2 602.1,500.2 604.0,500.3 605.8,500.3 607.7,500.3 609.6,500.4 611.5,500.4 613.3,500.4 615.2,500.4 617.1,500.5 619.0,500.5 620.9,500.6 622.7,500.5 624.6,500.5 626.5,500.5 628.4,500.4 630.2,497.1 632.1,488.6 634.0,476.9 635.9,454.4 637.7,438.5 639.6,414.1 641.5,396.0 643.4,388.0 645.3,391.2 647.1,397.3 649.0,419.1 650.9,441.9 652.8,463.0 654.6,477.5 656.5,486.6 658.4,492.1 660.3,495.8 662.1,497.8 664.0,499.1 665.9,499.7 667.8,500.0 669.6,500.1 671.5,500.1 673.4,500.2 675.3,500.2 677.2,500.2 679.0,500.3 680.9,500.3 682.8,500.3 684.7,500.3 686.5,500.4 688.4,500.4 690.3,500.4 692.2,500.5 694.0,500.5 695.9,500.6 697.8,500.7 699.7,500.8 701.6,500.9 703.4,496.4 705.3,496.2 707.2,495.4 709.1,495.0 710.9,491.5 712.8,484.9 714.7,469.1 716.6,451.3 718.4,431.8 720.3,414.4 722.2,404.4 724.1,398.8 725.9,402.8 727.8,414.6 729.7,430.8 731.6,449.5 733.5,469.7 735.3,483.4 737.2,491.1 739.1,495.5 741.0,497.8 742.8,499.1 744.7,496.2 746.6,486.2 748.5,471.1 750.3,454.1 752.2,433.5 754.1,415.7 756.0,404.4 757.9,398.0 759.7,400.5 761.6,413.0 763.5,429.9 765.4,449.0 767.2,469.4 769.1,483.2 771.0,491.0 772.9,495.4 774.7,497.8 776.6,499.1 778.5,496.1 780.4,485.1 782.3,469.4 784.1,451.0 786.0,431.1 787.9,414.0 789.8,404.2 791.6,398.7 793.5,402.7 795.4,414.6 797.3,430.8 799.1,449.5 801.0,469.6 802.9,483.3 804.8,491.1 806.6,495.5 808.5,497.8 810.4,499.1 812.3,499.7 814.2,500.0 816.0,500.1 817.9,500.1 819.8,500.2 821.7,500.2 823.5,500.2 825.4,500.3 827.3,500.2 829.2,500.3 831.0,500.3 832.9,497.0 834.8,488.3 836.7,476.3 838.6,466.0 840.4,443.2 842.3,421.3 844.2,406.4 846.1,395.4 847.9,390.5 849.8,404.7 851.7,425.1 853.6,446.0 855.4,467.6 857.3,482.0 859.2,490.3 861.1,495.0 862.9,497.6 864.8,499.0 866.7,499.6 868.6,500.0 870.5,500.1 872.3,500.1 874.2,500.1 876.1,500.2 878.0,500.2 879.8,500.3 881.7,500.3 883.6,500.3 885.5,500.3 887.3,500.4 889.2,500.4 891.1,500.4 893.0,500.4 894.9,500.5 896.7,500.6 898.6,500.7 900.5,500.8 902.4,500.9 904.2,501.0 906.1,501.0 908.0,501.0 909.9,501.0 911.7,501.0 913.6,501.0 915.5,501.0 917.4,501.0 919.2,501.0 921.1,501.0 923.0,496.3 924.9,484.3 926.8,482.2 928.6,477.2 930.5,472.1 932.4,473.8 934.3,484.2 936.1,485.3 938.0,489.9 939.9,493.8 941.8,494.2 943.6,487.8 945.5,476.0 947.4,459.5 949.3,435.8 951.2,414.1 953.0,398.9 954.9,389.0 956.8,390.8 958.7,407.2 960.5,426.7 962.4,447.2 964.3,468.4 966.2,482.6 968.0,490.7 969.9,495.3 971.8,497.7 973.7,499.0 975.5,499.7 977.4,500.0 979.3,500.1 981.2,500.1 983.1,500.2 984.9,500.2 986.8,500.2 988.7,500.3 990.6,500.3 992.4,500.3 994.3,500.3 996.2,500.4 998.1,500.4 999.9,500.4 1001.8,500.5 1003.7,500.5 1005.6,497.6 1007.5,495.7 1009.3,493.7 1011.2,492.4 1013.1,491.6 1015.0,493.9 1016.8,495.7 1018.7,497.7 1020.6,495.6 1022.5,487.7 1024.3,475.3 1026.2,455.6 1028.1,434.8 1030.0,417.0 1031.8,404.2 1033.7,395.7 1035.6,401.0 1037.5,413.6 1039.4,430.2 1041.2,449.2 1043.1,469.5 1045.0,483.3 1046.9,491.1 1048.7,495.4 1050.6,497.8 1052.5,499.1 1054.4,499.7 1056.2,496.3 1058.1,495.5 1060.0,494.0" fill="none" stroke="#486b3e" stroke-width="3.2" stroke-linecap="round" stroke-linejoin="round" opacity="0.92" clip-path="url(#panel-gripper)"/>
<text x="86" y="516" font-family="Avenir Next, Trebuchet MS, sans-serif" font-size="12" fill="#5a6257">0s</text>
<text x="1024" y="516" font-family="Avenir Next, Trebuchet MS, sans-serif" font-size="12" fill="#5a6257">6.5s</text>
</svg>