<svg xmlns="http://www.w3.org/2000/svg" viewBox="0 0 1120 590" role="img" aria-label="LIBERO contact force and velocity traces">
<defs>
<clipPath id="panel-force"><rect x="86" y="152" width="962" height="170"/></clipPath>
<clipPath id="panel-eef"><rect x="86" y="378" width="962" height="170"/></clipPath>
</defs>
<rect width="1120" height="590" rx="28" fill="#fffaf0"/>
<rect x="1" y="1" width="1118" height="588" rx="28" fill="none" stroke="#d7cab4" stroke-width="2"/>
<text x="56" y="38" font-family="Georgia, Times New Roman, serif" font-size="25" font-weight="700" fill="#151b14">Contact trace: lower force spikes, continued motion</text>
<text x="56" y="62" font-family="Avenir Next, Trebuchet MS, sans-serif" font-size="14" fill="#5a6257">Logged after rollout only; the policy receives images, language, and proprioception.</text>
<circle cx="720" cy="36" r="6" fill="#b86842"/>
<text x="732" y="41" font-family="Avenir Next, Trebuchet MS, sans-serif" font-size="14" font-weight="800" fill="#151b14">SmolVLA</text>
<circle cx="838" cy="36" r="6" fill="#6f7680"/>
<text x="850" y="41" font-family="Avenir Next, Trebuchet MS, sans-serif" font-size="14" font-weight="800" fill="#151b14">Larger</text>
<circle cx="956" cy="36" r="6" fill="#486b3e"/>
<text x="968" y="41" font-family="Avenir Next, Trebuchet MS, sans-serif" font-size="14" font-weight="800" fill="#151b14">PRISM</text>
<rect x="56" y="78" width="1008" height="42" rx="18" fill="#edf2df" stroke="#d7cab4"/>
<text x="76" y="96" font-family="Avenir Next, Trebuchet MS, sans-serif" font-size="13" font-weight="900" fill="#263f24">Read left to right: avoid large contact-force spikes while keeping the end-effector moving.</text>
<text x="76" y="113" font-family="Avenir Next, Trebuchet MS, sans-serif" font-size="11" font-weight="800" fill="#b86842">SmolVLA: force p95 25.8, speed 0.22</text>
<text x="266" y="113" font-family="Avenir Next, Trebuchet MS, sans-serif" font-size="11" font-weight="800" fill="#6f7680">Larger: force p95 32.9, speed 0.30</text>
<text x="456" y="113" font-family="Avenir Next, Trebuchet MS, sans-serif" font-size="11" font-weight="800" fill="#486b3e">PRISM: force p95 16.6, speed 0.34</text>
<text x="56" y="136" font-family="Avenir Next, Trebuchet MS, sans-serif" font-size="15" font-weight="900" fill="#263f24">Contact force norm</text>
<text x="228" y="136" font-family="Avenir Next, Trebuchet MS, sans-serif" font-size="12" font-weight="700" fill="#5a6257">Lower spikes are better.</text>
<line x1="86" y1="279.5" x2="1048" y2="279.5" stroke="#eadfcb" stroke-width="1"/>
<line x1="86" y1="237.0" x2="1048" y2="237.0" stroke="#eadfcb" stroke-width="1"/>
<line x1="86" y1="194.5" x2="1048" y2="194.5" stroke="#eadfcb" stroke-width="1"/>
<line x1="86" y1="322" x2="1048" y2="322" stroke="#d7cab4" stroke-width="1.5"/>
<line x1="86" y1="152" x2="86" y2="322" stroke="#d7cab4" stroke-width="1.5"/>
<text x="38" y="322" font-family="Avenir Next, Trebuchet MS, sans-serif" font-size="12" fill="#5a6257">0</text>
<text x="30" y="157" font-family="Avenir Next, Trebuchet MS, sans-serif" font-size="12" fill="#5a6257">38</text>
<polyline points="86.0,321.2 87.9,321.2 89.7,321.2 91.6,321.2 93.4,321.2 95.3,321.2 97.1,321.2 99.0,321.2 100.8,321.2 102.7,321.2 104.5,321.2 106.4,321.2 108.2,321.2 110.1,321.2 111.9,321.2 113.8,321.2 115.7,321.2 117.5,321.2 119.4,321.2 121.2,321.2 123.1,321.2 124.9,321.2 126.8,321.2 128.6,321.2 130.5,321.2 132.3,321.2 134.2,321.2 136.0,321.2 137.9,321.2 139.8,321.2 141.6,321.2 143.5,321.2 145.3,321.2 147.2,321.2 149.0,321.2 150.9,321.2 152.7,321.2 154.6,321.2 156.4,321.2 158.3,321.2 160.1,321.2 162.0,321.2 163.8,321.2 165.7,321.2 167.6,321.2 169.4,297.9 171.3,269.7 173.1,248.2 175.0,227.5 176.8,208.0 178.7,212.8 180.5,225.0 182.4,232.5 184.2,239.9 186.1,247.8 187.9,257.1 189.8,267.1 191.7,277.2 193.5,289.6 195.4,301.3 197.2,310.3 199.1,316.5 200.9,320.4 202.8,321.2 204.6,321.2 206.5,321.2 208.3,321.2 210.2,321.2 212.0,321.2 213.9,321.2 215.7,321.2 217.6,321.2 219.5,321.2 221.3,321.2 223.2,321.2 225.0,321.2 226.9,321.2 228.7,321.2 230.6,321.2 232.4,321.2 234.3,321.2 236.1,321.2 238.0,321.2 239.8,321.2 241.7,321.2 243.6,320.6 245.4,320.3 247.3,320.0 249.1,319.6 251.0,319.3 252.8,319.5 254.7,319.5 256.5,319.5 258.4,319.4 260.2,319.4 262.1,319.4 263.9,319.4 265.8,319.3 267.6,319.3 269.5,319.3 271.4,319.3 273.2,319.3 275.1,319.2 276.9,319.2 278.8,319.2 280.6,319.2 282.5,319.2 284.3,319.1 286.2,319.1 288.0,319.1 289.9,319.1 291.7,319.1 293.6,319.1 295.5,319.1 297.3,319.1 299.2,319.1 301.0,319.1 302.9,319.1 304.7,319.1 306.6,319.1 308.4,319.1 310.3,319.1 312.1,319.1 314.0,319.1 315.8,319.1 317.7,319.1 319.5,319.1 321.4,319.1 323.3,319.1 325.1,319.1 327.0,319.1 328.8,319.1 330.7,319.5 332.5,319.9 334.4,320.3 336.2,320.8 338.1,321.2 339.9,321.2 341.8,321.2 343.6,321.2 345.5,321.2 347.4,321.2 349.2,321.2 351.1,321.2 352.9,321.2 354.8,321.2 356.6,321.2 358.5,321.2 360.3,321.2 362.2,321.2 364.0,321.2 365.9,321.2 367.7,321.2 369.6,321.2 371.4,321.2 373.3,321.2 375.2,321.2 377.0,321.2 378.9,321.2 380.7,321.2 382.6,321.2 384.4,321.2 386.3,321.2 388.1,321.2 390.0,321.2 391.8,321.2 393.7,321.2 395.5,321.2 397.4,321.2 399.3,321.2 401.1,321.2 403.0,321.2 404.8,321.2 406.7,321.2 408.5,321.2 410.4,321.2 412.2,317.2 414.1,315.6 415.9,257.1 417.8,224.3 419.6,188.6 421.5,158.7 423.3,152.0 425.2,162.7 427.1,168.0 428.9,180.1 430.8,193.6 432.6,202.5 434.5,212.7 436.3,222.0 438.2,228.7 440.0,233.0 441.9,236.4 443.7,239.7 445.6,242.5 447.4,246.0 449.3,250.0 451.2,252.8 453.0,243.2 454.9,232.1 456.7,224.4 458.6,213.6 460.4,207.8 462.3,215.2 464.1,226.9 466.0,235.8 467.8,248.1 469.7,251.2 471.5,268.1 473.4,282.7 475.2,294.8 477.1,305.4 479.0,320.4 480.8,320.9 482.7,321.2 484.5,321.2 486.4,321.2 488.2,321.2 490.1,321.2 491.9,321.2 493.8,321.2 495.6,321.2 497.5,321.2 499.3,321.2 501.2,321.2 503.1,321.2 504.9,321.2 506.8,321.2 508.6,321.2 510.5,321.2 512.3,321.2 514.2,321.2 516.0,321.2 517.9,320.3 519.7,319.9 521.6,319.5 523.4,319.1 525.3,318.7 527.1,319.2 529.0,319.2 530.9,319.2 532.7,319.2 534.6,319.1 536.4,319.2 538.3,319.1 540.1,319.1 542.0,319.2 543.8,319.6 545.7,320.0 547.5,320.4 549.4,320.8 551.2,321.2 553.1,321.2 555.0,321.2 556.8,321.2 558.7,321.2 560.5,321.2 562.4,321.2 564.2,321.2 566.1,321.2 567.9,321.2 569.8,321.2 571.6,321.2 573.5,321.2 575.3,321.2 577.2,321.2 579.0,321.2 580.9,321.2 582.8,321.2 584.6,321.2 586.5,321.2 588.3,321.2 590.2,321.2 592.0,321.2 593.9,321.2 595.7,321.2 597.6,321.2 599.4,321.2 601.3,321.2 603.1,321.2 605.0,321.2 606.9,321.2 608.7,321.2 610.6,321.2 612.4,321.2 614.3,295.9 616.1,268.5 618.0,243.0 619.8,219.6 621.7,198.1 623.5,205.2 625.4,215.0 627.2,222.3 629.1,233.0 630.9,240.2 632.8,246.1 634.7,254.1 636.5,267.1 638.4,262.7 640.2,262.1 642.1,260.8 643.9,255.7 645.8,244.7 647.6,242.9 649.5,233.5 651.3,247.0 653.2,261.8 655.0,278.0 656.9,295.4 658.8,318.4 660.6,316.4 662.5,314.5 664.3,312.6 666.2,312.2 668.0,311.6 669.9,311.8 671.7,311.9 673.6,313.7 675.4,315.6 677.3,317.4 679.1,319.3 681.0,321.1 682.8,321.2 684.7,321.2 686.6,321.2 688.4,321.2 690.3,321.2 692.1,321.2 694.0,321.2 695.8,321.2 697.7,321.2 699.5,321.2 701.4,321.2 703.2,321.0 705.1,320.9 706.9,320.9 708.8,298.6 710.7,281.5 712.5,265.7 714.4,251.1 716.2,232.1 718.1,237.3 719.9,241.0 721.8,246.4 723.6,248.8 725.5,257.3 727.3,265.2 729.2,269.3 731.0,262.3 732.9,257.7 734.7,252.4 736.6,246.9 738.5,243.3 740.3,243.1 742.2,238.4 744.0,231.2 745.9,231.2 747.7,231.2 749.6,239.4 751.4,254.4 753.3,271.1 755.1,278.1 757.0,281.8 758.8,280.1 760.7,279.7 762.6,279.5 764.4,280.6 766.3,284.8 768.1,290.3 770.0,288.9 771.8,285.9 773.7,280.1 775.5,273.1 777.4,267.2 779.2,263.9 781.1,259.6 782.9,254.9 784.8,250.4 786.6,243.6 788.5,241.6 790.4,241.0 792.2,246.2 794.1,253.5 795.9,263.9 797.8,267.6 799.6,272.1 801.5,275.7 803.3,277.1 805.2,275.4 807.0,274.1 808.9,274.4 810.7,276.4 812.6,281.5 814.5,291.3 816.3,298.9 818.2,304.2 820.0,306.4 821.9,304.8 823.7,284.1 825.6,273.7 827.4,265.4 829.3,256.1 831.1,246.7 833.0,254.3 834.8,255.8 836.7,252.8 838.5,253.4 840.4,253.1 842.3,253.8 844.1,253.5 846.0,256.1 847.8,254.6 849.7,256.5 851.5,258.7 853.4,263.9 855.2,269.7 857.1,274.8 858.9,277.2 860.8,279.6 862.6,280.2 864.5,280.3 866.4,282.8 868.2,292.4 870.1,300.3 871.9,300.8 873.8,299.1 875.6,297.5 877.5,289.5 879.3,279.2 881.2,274.7 883.0,271.2 884.9,270.5 886.7,272.8 888.6,276.6 890.4,280.6 892.3,284.6 894.2,286.1 896.0,282.4 897.9,278.4 899.7,274.2 901.6,271.5 903.4,273.5 905.3,282.8 907.1,289.5 909.0,300.9 910.8,311.8 912.7,317.2 914.5,317.2 916.4,321.2 918.3,303.1 920.1,282.6 922.0,263.1 923.8,235.5 925.7,210.0 927.5,197.5 929.4,187.2 931.2,184.5 933.1,196.7 934.9,209.1 936.8,230.6 938.6,254.5 940.5,272.5 942.3,281.8 944.2,294.7 946.1,303.4 947.9,310.3 949.8,310.7 951.6,316.8 953.5,316.9 955.3,312.4 957.2,312.4 959.0,308.7 960.9,301.9 962.7,291.6 964.6,283.6 966.4,269.6 968.3,260.7 970.2,253.7 972.0,252.1 973.9,252.3 975.7,253.8 977.6,259.7 979.4,262.5 981.3,262.5 983.1,268.6 985.0,275.9 986.8,280.1 988.7,285.3 990.5,291.0 992.4,291.3 994.2,289.7 996.1,291.0 998.0,296.8 999.8,296.4 1001.7,302.6 1003.5,309.5 1005.4,314.5 1007.2,314.6 1009.1,242.7 1010.9,214.0 1012.8,190.8 1014.6,171.1 1016.5,152.5 1018.3,205.1 1020.2,211.7 1022.1,213.2 1023.9,209.9 1025.8,208.6 1027.6,219.0 1029.5,230.6 1031.3,237.7 1033.2,250.6 1035.0,264.5 1036.9,273.3 1038.7,283.9 1040.6,298.4 1042.4,308.6 1044.3,314.5 1046.1,321.2 1048.0,321.2" fill="none" stroke="#b86842" stroke-width="3.2" stroke-linecap="round" stroke-linejoin="round" opacity="0.92" clip-path="url(#panel-force)"/>
<polyline points="86.0,321.2 87.9,321.2 89.7,321.2 91.6,321.2 93.4,321.2 95.3,321.2 97.1,321.2 99.0,321.2 100.8,321.2 102.7,321.2 104.5,321.2 106.4,321.2 108.2,321.2 110.1,321.2 111.9,321.2 113.8,321.2 115.7,321.2 117.5,321.2 119.4,321.2 121.2,321.2 123.1,321.2 124.9,321.2 126.8,321.2 128.6,321.2 130.5,321.2 132.3,321.2 134.2,321.2 136.0,321.2 137.9,321.2 139.8,321.2 141.6,321.2 143.5,321.2 145.3,321.2 147.2,321.2 149.0,321.2 150.9,321.2 152.7,321.2 154.6,321.2 156.4,301.3 158.3,259.0 160.1,174.7 162.0,152.0 163.8,152.0 165.7,152.0 167.6,152.0 169.4,152.0 171.3,152.0 173.1,152.0 175.0,155.6 176.8,205.5 178.7,250.3 180.5,291.3 182.4,315.2 184.2,319.9 186.1,320.9 187.9,321.1 189.8,321.1 191.7,321.1 193.5,321.1 195.4,321.2 197.2,321.2 199.1,321.2 200.9,321.2 202.8,321.2 204.6,321.2 206.5,321.2 208.3,321.2 210.2,321.2 212.0,321.2 213.9,321.2 215.7,321.2 217.6,321.2 219.5,321.2 221.3,321.2 223.2,321.2 225.0,321.2 226.9,321.2 228.7,321.2 230.6,321.2 232.4,321.2 234.3,321.2 236.1,321.2 238.0,321.2 239.8,321.2 241.7,321.2 243.6,321.2 245.4,321.2 247.3,321.2 249.1,321.2 251.0,321.2 252.8,321.2 254.7,321.2 256.5,321.2 258.4,321.2 260.2,321.2 262.1,321.2 263.9,321.2 265.8,321.2 267.6,321.2 269.5,321.2 271.4,321.2 273.2,321.2 275.1,321.2 276.9,320.4 278.8,320.1 280.6,319.7 282.5,319.4 284.3,319.0 286.2,319.4 288.0,319.4 289.9,319.4 291.7,319.4 293.6,319.3 295.5,319.3 297.3,319.3 299.2,319.2 301.0,319.2 302.9,319.2 304.7,319.2 306.6,319.2 308.4,319.2 310.3,319.1 312.1,319.1 314.0,319.1 315.8,319.1 317.7,319.1 319.5,319.1 321.4,319.1 323.3,319.1 325.1,319.1 327.0,319.1 328.8,319.1 330.7,319.1 332.5,319.1 334.4,319.1 336.2,319.1 338.1,319.1 339.9,319.1 341.8,319.1 343.6,319.1 345.5,319.1 347.4,319.5 349.2,319.9 351.1,320.3 352.9,320.8 354.8,321.2 356.6,321.2 358.5,321.2 360.3,321.2 362.2,321.2 364.0,321.2 365.9,321.2 367.7,321.2 369.6,321.2 371.4,321.2 373.3,321.2 375.2,321.2 377.0,321.2 378.9,321.2 380.7,321.2 382.6,321.2 384.4,321.2 386.3,321.2 388.1,321.2 390.0,321.2 391.8,321.2 393.7,321.2 395.5,321.2 397.4,321.2 399.3,321.2 401.1,321.2 403.0,321.2 404.8,321.2 406.7,321.2 408.5,321.2 410.4,321.2 412.2,321.2 414.1,321.2 415.9,321.2 417.8,321.2 419.6,321.2 421.5,321.2 423.3,321.2 425.2,321.2 427.1,321.2 428.9,321.2 430.8,321.2 432.6,321.2 434.5,321.2 436.3,321.2 438.2,321.2 440.0,321.2 441.9,321.2 443.7,321.2 445.6,321.2 447.4,273.4 449.3,244.2 451.2,220.6 453.0,186.5 454.9,153.6 456.7,174.0 458.6,162.7 460.4,168.1 462.3,166.1 464.1,182.2 466.0,171.3 467.8,195.5 469.7,204.9 471.5,240.9 473.4,257.8 475.2,296.1 477.1,312.4 479.0,321.2 480.8,321.0 482.7,321.0 484.5,321.0 486.4,321.0 488.2,321.0 490.1,321.2 491.9,321.1 493.8,321.1 495.6,321.1 497.5,321.1 499.3,321.1 501.2,321.2 503.1,320.9 504.9,320.9 506.8,320.9 508.6,320.7 510.5,319.1 512.3,317.2 514.2,314.2 516.0,314.1 517.9,306.5 519.7,297.5 521.6,284.6 523.4,238.3 525.3,186.1 527.1,152.0 529.0,152.0 530.9,152.0 532.7,152.0 534.6,152.0 536.4,152.0 538.3,152.0 540.1,152.0 542.0,152.0 543.8,152.0 545.7,152.0 547.5,159.9 549.4,213.4 551.2,268.1 553.1,321.1 555.0,321.2 556.8,321.2 558.7,321.2 560.5,321.2 562.4,321.2 564.2,321.2 566.1,321.2 567.9,321.2 569.8,321.2 571.6,321.2 573.5,321.2 575.3,321.2 577.2,321.2 579.0,321.2 580.9,321.2 582.8,321.2 584.6,321.2 586.5,321.2 588.3,321.2 590.2,321.2 592.0,321.2 593.9,321.2 595.7,321.2 597.6,321.2 599.4,321.2 601.3,321.2 603.1,321.2 605.0,321.2 606.9,321.2 608.7,321.2 610.6,321.2 612.4,321.2 614.3,321.2 616.1,321.2 618.0,321.2 619.8,321.2 621.7,321.2 623.5,321.2 625.4,321.2 627.2,321.2 629.1,321.2 630.9,321.2 632.8,321.2 634.7,321.2 636.5,321.2 638.4,321.2 640.2,321.2 642.1,321.2 643.9,321.2 645.8,321.2 647.6,321.2 649.5,321.2 651.3,321.2 653.2,321.2 655.0,321.2 656.9,321.2 658.8,321.2 660.6,321.2 662.5,321.2 664.3,321.2 666.2,321.2 668.0,321.2 669.9,321.2 671.7,321.2 673.6,321.2 675.4,321.2 677.3,321.2 679.1,321.2 681.0,321.2 682.8,321.2 684.7,321.2 686.6,321.2 688.4,321.2 690.3,321.2 692.1,321.2 694.0,321.2 695.8,321.2 697.7,321.2 699.5,321.2 701.4,321.2 703.2,321.2 705.1,321.2 706.9,321.2 708.8,321.2 710.7,321.2 712.5,321.2 714.4,321.2 716.2,321.2 718.1,321.2 719.9,321.2 721.8,321.2 723.6,321.2 725.5,321.2 727.3,321.2 729.2,321.2 731.0,321.2 732.9,321.2 734.7,321.2 736.6,321.2 738.5,321.2 740.3,321.2 742.2,321.2 744.0,321.2 745.9,321.2 747.7,321.2 749.6,321.2 751.4,321.2 753.3,321.2 755.1,321.2 757.0,321.2 758.8,321.2 760.7,321.2 762.6,321.2 764.4,321.2 766.3,321.2 768.1,321.2 770.0,321.2 771.8,321.2 773.7,321.2 775.5,321.2 777.4,321.2 779.2,321.2 781.1,321.2 782.9,321.2 784.8,321.2 786.6,321.2 788.5,321.2 790.4,321.2 792.2,321.2 794.1,321.2 795.9,321.2 797.8,321.2 799.6,321.2 801.5,321.2 803.3,321.2 805.2,321.2 807.0,321.2 808.9,321.2 810.7,321.2 812.6,321.2 814.5,321.2 816.3,321.2 818.2,321.2 820.0,321.2 821.9,321.2 823.7,321.2 825.6,321.2 827.4,321.2 829.3,321.2 831.1,321.2 833.0,321.2 834.8,321.2 836.7,321.2 838.5,321.2 840.4,321.2 842.3,321.2 844.1,321.2 846.0,321.2 847.8,321.2 849.7,321.2 851.5,321.2 853.4,321.2 855.2,321.2 857.1,321.2 858.9,321.2 860.8,321.2 862.6,321.2 864.5,321.2 866.4,321.2 868.2,321.2 870.1,321.2 871.9,321.2 873.8,321.2 875.6,321.2 877.5,321.2 879.3,321.2 881.2,321.2 883.0,321.2 884.9,321.2 886.7,321.2 888.6,321.2 890.4,321.2 892.3,321.2 894.2,321.2 896.0,321.2 897.9,321.2 899.7,321.2 901.6,321.2 903.4,321.2 905.3,321.2 907.1,321.2 909.0,321.2 910.8,321.2 912.7,321.2 914.5,321.2 916.4,321.2 918.3,321.2 920.1,321.2 922.0,321.2 923.8,321.2 925.7,321.2 927.5,321.2 929.4,321.2 931.2,321.2 933.1,321.2 934.9,321.2 936.8,321.2 938.6,321.2 940.5,321.2 942.3,321.2 944.2,321.2 946.1,321.2 947.9,321.2 949.8,321.2 951.6,321.2 953.5,321.2 955.3,321.2 957.2,320.9 959.0,320.5 960.9,320.1 962.7,319.8 964.6,319.4 966.4,319.3 968.3,319.3 970.2,319.3 972.0,319.3 973.9,319.3 975.7,319.7 977.6,320.1 979.4,320.4 981.3,320.8 983.1,321.2 985.0,321.2 986.8,321.2 988.7,321.2 990.5,321.2 992.4,321.2 994.2,321.2 996.1,321.2 998.0,321.2 999.8,321.2 1001.7,321.2 1003.5,321.2 1005.4,321.2 1007.2,321.2 1009.1,321.2 1010.9,321.2 1012.8,321.2 1014.6,321.2 1016.5,321.2 1018.3,321.2 1020.2,321.2 1022.1,321.2 1023.9,321.2 1025.8,321.2 1027.6,321.2 1029.5,321.2 1031.3,321.2 1033.2,321.2 1035.0,321.2 1036.9,321.2 1038.7,321.2 1040.6,321.2 1042.4,321.2 1044.3,321.2 1046.1,321.2 1048.0,321.2" fill="none" stroke="#6f7680" stroke-width="3.2" stroke-linecap="round" stroke-linejoin="round" opacity="0.92" clip-path="url(#panel-force)"/>
<polyline points="86.0,321.2 87.9,321.2 89.7,321.2 91.6,321.2 93.4,321.2 95.3,321.2 97.1,321.2 99.0,321.2 100.8,321.2 102.7,321.2 104.5,321.2 106.4,321.2 108.2,321.2 110.1,321.2 111.9,321.2 113.8,321.2 115.7,321.2 117.5,321.2 119.4,321.2 121.2,321.2 123.1,321.2 124.9,321.2 126.8,321.2 128.6,321.2 130.5,321.2 132.3,321.2 134.2,321.2 136.0,321.2 137.9,321.2 139.8,321.2 141.6,321.2 143.5,321.2 145.3,321.2 147.2,321.2 149.0,321.2 150.9,321.2 152.7,321.2 154.6,321.2 156.4,321.2 158.3,321.2 160.1,321.2 162.0,321.2 163.8,321.2 165.7,293.4 167.6,266.4 169.4,243.3 171.3,224.0 173.1,210.3 175.0,231.7 176.8,256.5 178.7,279.6 180.5,298.9 182.4,312.5 184.2,318.9 186.1,321.2 187.9,321.2 189.8,321.2 191.7,321.2 193.5,321.2 195.4,321.2 197.2,321.2 199.1,321.2 200.9,321.2 202.8,321.2 204.6,321.2 206.5,321.2 208.3,321.1 210.2,321.2 212.0,321.2 213.9,321.2 215.7,321.2 217.6,321.2 219.5,321.2 221.3,321.2 223.2,321.2 225.0,321.2 226.9,321.2 228.7,321.2 230.6,321.2 232.4,320.9 234.3,320.6 236.1,320.2 238.0,319.9 239.8,319.6 241.7,319.5 243.6,319.5 245.4,319.5 247.3,319.5 249.1,319.5 251.0,319.4 252.8,319.4 254.7,319.4 256.5,319.4 258.4,319.3 260.2,319.3 262.1,319.3 263.9,319.3 265.8,319.3 267.6,319.2 269.5,319.2 271.4,319.2 273.2,319.2 275.1,319.1 276.9,319.1 278.8,319.1 280.6,319.1 282.5,319.1 284.3,319.1 286.2,319.1 288.0,319.1 289.9,319.1 291.7,319.1 293.6,319.1 295.5,319.1 297.3,319.1 299.2,319.0 301.0,319.0 302.9,319.1 304.7,319.0 306.6,319.1 308.4,319.1 310.3,319.1 312.1,319.1 314.0,319.1 315.8,319.0 317.7,319.1 319.5,319.1 321.4,319.1 323.3,319.0 325.1,319.0 327.0,319.0 328.8,319.0 330.7,319.5 332.5,319.9 334.4,320.3 336.2,320.7 338.1,321.2 339.9,321.2 341.8,321.2 343.6,321.2 345.5,321.2 347.4,321.2 349.2,321.2 351.1,321.2 352.9,321.2 354.8,321.2 356.6,321.2 358.5,321.2 360.3,321.2 362.2,321.2 364.0,321.2 365.9,321.2 367.7,321.2 369.6,321.2 371.4,321.2 373.3,321.2 375.2,321.2 377.0,321.2 378.9,321.2 380.7,321.2 382.6,321.2 384.4,321.2 386.3,321.2 388.1,321.2 390.0,321.2 391.8,321.2 393.7,321.2 395.5,321.2 397.4,321.2 399.3,321.2 401.1,321.2 403.0,321.2 404.8,321.2 406.7,321.2 408.5,296.6 410.4,295.1 412.2,259.9 414.1,234.4 415.9,211.8 417.8,209.2 419.6,182.8 421.5,192.0 423.3,195.2 425.2,193.1 427.1,197.9 428.9,208.1 430.8,222.3 432.6,222.5 434.5,228.4 436.3,239.2 438.2,245.2 440.0,245.2 441.9,256.0 443.7,265.2 445.6,272.6 447.4,284.2 449.3,296.0 451.2,307.3 453.0,316.9 454.9,321.1 456.7,321.2 458.6,321.2 460.4,321.2 462.3,321.2 464.1,321.2 466.0,321.2 467.8,321.2 469.7,321.2 471.5,321.2 473.4,321.2 475.2,321.2 477.1,321.2 479.0,321.2 480.8,321.2 482.7,321.2 484.5,321.2 486.4,321.2 488.2,321.2 490.1,321.2 491.9,320.4 493.8,320.0 495.6,319.6 497.5,319.2 499.3,318.7 501.2,319.1 503.1,319.1 504.9,319.1 506.8,319.1 508.6,319.1 510.5,319.1 512.3,319.1 514.2,319.1 516.0,319.5 517.9,319.9 519.7,320.3 521.6,320.7 523.4,321.2 525.3,321.2 527.1,321.2 529.0,321.2 530.9,321.2 532.7,321.2 534.6,320.9 536.4,320.8 538.3,320.8 540.1,320.8 542.0,320.8 543.8,321.2 545.7,321.2 547.5,321.2 549.4,321.2 551.2,321.2 553.1,321.2 555.0,321.2 556.8,321.2 558.7,321.2 560.5,321.2 562.4,321.2 564.2,321.2 566.1,321.2 567.9,321.2 569.8,321.2 571.6,321.2 573.5,321.2 575.3,321.2 577.2,321.2 579.0,321.2 580.9,321.2 582.8,321.2 584.6,321.2 586.5,321.2 588.3,321.2 590.2,321.2 592.0,321.2 593.9,321.2 595.7,321.2 597.6,321.2 599.4,321.2 601.3,321.2 603.1,321.2 605.0,321.2 606.9,321.2 608.7,321.2 610.6,321.2 612.4,276.2 614.3,263.9 616.1,255.0 618.0,245.2 619.8,236.8 621.7,274.8 623.5,279.2 625.4,278.0 627.2,277.5 629.1,286.0 630.9,283.1 632.8,279.0 634.7,288.9 636.5,298.5 638.4,298.5 640.2,308.3 642.1,319.2 643.9,315.7 645.8,316.0 647.6,316.0 649.5,316.0 651.3,317.1 653.2,320.8 655.0,321.2 656.9,321.2 658.8,321.2 660.6,321.2 662.5,321.2 664.3,321.2 666.2,321.2 668.0,321.2 669.9,321.2 671.7,321.2 673.6,321.2 675.4,321.2 677.3,321.2 679.1,321.2 681.0,321.2 682.8,321.2 684.7,321.2 686.6,320.3 688.4,319.9 690.3,319.5 692.1,319.1 694.0,318.7 695.8,319.6 697.7,320.0 699.5,320.4 701.4,320.8 703.2,321.2 705.1,321.2 706.9,321.2 708.8,321.2 710.7,321.2 712.5,321.2 714.4,321.2 716.2,321.2 718.1,321.2 719.9,321.2 721.8,321.2 723.6,321.2 725.5,321.2 727.3,321.2 729.2,321.2 731.0,321.2 732.9,321.2 734.7,288.2 736.6,259.8 738.5,259.8 740.3,259.8 742.2,259.8 744.0,292.8 745.9,321.2 747.7,321.2 749.6,321.2 751.4,321.2 753.3,321.2 755.1,321.2 757.0,321.2 758.8,321.2 760.7,321.2 762.6,321.2 764.4,321.2 766.3,321.2 768.1,321.2 770.0,321.2 771.8,321.2 773.7,321.2 775.5,321.2 777.4,321.2 779.2,321.2 781.1,321.2 782.9,321.2 784.8,321.2 786.6,321.2 788.5,321.2 790.4,321.2 792.2,321.2 794.1,321.2 795.9,321.2 797.8,321.2 799.6,321.2 801.5,321.2 803.3,321.2 805.2,321.2 807.0,321.2 808.9,321.2 810.7,321.2 812.6,275.5 814.5,275.5 816.3,263.8 818.2,263.8 820.0,263.8 821.9,309.5 823.7,297.2 825.6,295.8 827.4,286.4 829.3,286.4 831.1,286.4 833.0,298.7 834.8,311.7 836.7,321.1 838.5,321.1 840.4,321.1 842.3,321.1 844.1,321.1 846.0,321.2 847.8,321.2 849.7,321.2 851.5,321.2 853.4,321.2 855.2,321.2 857.1,321.2 858.9,321.2 860.8,321.2 862.6,321.2 864.5,321.2 866.4,321.2 868.2,321.2 870.1,321.2 871.9,321.2 873.8,321.2 875.6,321.2 877.5,321.2 879.3,321.2 881.2,321.2 883.0,321.2 884.9,321.2 886.7,320.8 888.6,320.4 890.4,320.0 892.3,319.6 894.2,319.1 896.0,319.1 897.9,319.1 899.7,319.1 901.6,319.1 903.4,319.1 905.3,319.1 907.1,319.1 909.0,319.1 910.8,319.1 912.7,319.5 914.5,319.9 916.4,320.4 918.3,320.8 920.1,321.2 922.0,321.2 923.8,321.2 925.7,321.2 927.5,321.2 929.4,300.4 931.2,283.3 933.1,270.5 934.9,270.5 936.8,270.5 938.6,291.3 940.5,308.5 942.3,321.2 944.2,321.2 946.1,321.2 947.9,321.2 949.8,321.2 951.6,321.2 953.5,321.2 955.3,321.2 957.2,321.2 959.0,321.2 960.9,321.2 962.7,321.2 964.6,321.2 966.4,321.2 968.3,321.2 970.2,321.2 972.0,321.2 973.9,321.2 975.7,321.2 977.6,321.2 979.4,321.2 981.3,321.2 983.1,321.2 985.0,321.2 986.8,321.2 988.7,321.2 990.5,321.2 992.4,321.2 994.2,298.8 996.1,274.9 998.0,259.0 999.8,244.2 1001.7,230.8 1003.5,240.2 1005.4,250.7 1007.2,254.3 1009.1,256.6 1010.9,261.1 1012.8,274.0 1014.6,287.5 1016.5,299.8 1018.3,312.3 1020.2,321.2 1022.1,321.2 1023.9,321.2 1025.8,321.2 1027.6,321.2 1029.5,321.2 1031.3,321.2 1033.2,321.2 1035.0,321.2 1036.9,321.2 1038.7,321.2 1040.6,321.2 1042.4,321.2 1044.3,321.2 1046.1,321.2 1048.0,321.2" fill="none" stroke="#486b3e" stroke-width="3.2" stroke-linecap="round" stroke-linejoin="round" opacity="0.92" clip-path="url(#panel-force)"/>
<text x="56" y="362" font-family="Avenir Next, Trebuchet MS, sans-serif" font-size="15" font-weight="900" fill="#263f24">End-effector speed</text>
<text x="228" y="362" font-family="Avenir Next, Trebuchet MS, sans-serif" font-size="12" font-weight="700" fill="#5a6257">Sustained motion after contact is better.</text>
<line x1="86" y1="505.5" x2="1048" y2="505.5" stroke="#eadfcb" stroke-width="1"/>
<line x1="86" y1="463.0" x2="1048" y2="463.0" stroke="#eadfcb" stroke-width="1"/>
<line x1="86" y1="420.5" x2="1048" y2="420.5" stroke="#eadfcb" stroke-width="1"/>
<line x1="86" y1="548" x2="1048" y2="548" stroke="#d7cab4" stroke-width="1.5"/>
<line x1="86" y1="378" x2="86" y2="548" stroke="#d7cab4" stroke-width="1.5"/>
<text x="38" y="548" font-family="Avenir Next, Trebuchet MS, sans-serif" font-size="12" fill="#5a6257">0</text>
<text x="30" y="383" font-family="Avenir Next, Trebuchet MS, sans-serif" font-size="12" fill="#5a6257">0.76</text>
<polyline points="86.0,535.6 87.9,534.1 89.7,533.0 91.6,529.3 93.4,530.3 95.3,531.9 97.1,533.7 99.0,536.5 100.8,539.0 102.7,540.2 104.5,539.7 106.4,536.0 108.2,526.2 110.1,511.5 111.9,494.6 113.8,477.6 115.7,461.7 117.5,449.3 119.4,440.5 121.2,434.4 123.1,430.1 124.9,427.7 126.8,427.7 128.6,429.2 130.5,430.9 132.3,432.3 134.2,433.9 136.0,436.7 137.9,440.5 139.8,444.1 141.6,446.7 143.5,448.0 145.3,446.6 147.2,442.8 149.0,438.7 150.9,435.2 152.7,432.0 154.6,429.1 156.4,426.7 158.3,424.3 160.1,422.0 162.0,420.5 163.8,419.7 165.7,419.6 167.6,420.5 169.4,427.1 171.3,447.7 173.1,471.9 175.0,495.1 176.8,516.3 178.7,531.4 180.5,532.8 182.4,531.3 184.2,531.7 186.1,534.0 187.9,536.7 189.8,539.5 191.7,540.9 193.5,540.7 195.4,539.8 197.2,538.9 199.1,537.0 200.9,533.7 202.8,528.8 204.6,522.7 206.5,515.9 208.3,509.1 210.2,503.8 212.0,499.0 213.9,492.5 215.7,484.8 217.6,476.6 219.5,467.1 221.3,457.4 223.2,449.0 225.0,441.1 226.9,432.4 228.7,424.2 230.6,416.8 232.4,409.4 234.3,401.7 236.1,395.1 238.0,390.2 239.8,385.7 241.7,381.1 243.6,378.0 245.4,378.0 247.3,378.0 249.1,378.0 251.0,378.0 252.8,378.0 254.7,378.0 256.5,378.0 258.4,378.0 260.2,378.0 262.1,378.0 263.9,378.0 265.8,378.0 267.6,378.7 269.5,381.6 271.4,385.1 273.2,388.7 275.1,392.9 276.9,398.3 278.8,404.9 280.6,412.5 282.5,421.2 284.3,430.9 286.2,441.3 288.0,451.0 289.9,459.1 291.7,464.8 293.6,467.4 295.5,467.8 297.3,466.3 299.2,463.4 301.0,459.9 302.9,456.2 304.7,452.3 306.6,448.4 308.4,445.5 310.3,443.7 312.1,443.5 314.0,445.2 315.8,449.3 317.7,455.1 319.5,461.0 321.4,467.0 323.3,473.0 325.1,479.2 327.0,486.0 328.8,493.5 330.7,501.5 332.5,509.6 334.4,517.7 336.2,525.0 338.1,529.5 339.9,529.9 341.8,524.8 343.6,514.4 345.5,499.9 347.4,484.9 349.2,472.6 351.1,465.3 352.9,461.0 354.8,459.3 356.6,459.8 358.5,460.5 360.3,464.4 362.2,467.5 364.0,468.2 365.9,466.4 367.7,462.9 369.6,454.3 371.4,445.9 373.3,439.8 375.2,435.6 377.0,432.0 378.9,429.2 380.7,427.2 382.6,425.3 384.4,424.2 386.3,423.7 388.1,423.0 390.0,421.8 391.8,420.6 393.7,419.1 395.5,417.8 397.4,416.9 399.3,416.8 401.1,417.3 403.0,418.0 404.8,419.0 406.7,420.0 408.5,420.4 410.4,420.6 412.2,420.5 414.1,425.8 415.9,442.9 417.8,464.5 419.6,488.1 421.5,512.7 423.3,532.1 425.2,540.0 427.1,544.0 428.9,545.7 430.8,546.4 432.6,546.8 434.5,547.0 436.3,547.0 438.2,547.0 440.0,546.7 441.9,545.9 443.7,544.8 445.6,543.6 447.4,542.6 449.3,542.5 451.2,543.0 453.0,542.7 454.9,540.2 456.7,536.2 458.6,530.4 460.4,523.4 462.3,516.9 464.1,512.0 466.0,507.8 467.8,505.2 469.7,503.6 471.5,503.0 473.4,504.5 475.2,507.6 477.1,511.0 479.0,513.4 480.8,513.7 482.7,510.7 484.5,505.2 486.4,497.7 488.2,489.6 490.1,481.6 491.9,473.7 493.8,465.4 495.6,456.6 497.5,448.0 499.3,439.8 501.2,432.4 503.1,426.5 504.9,422.5 506.8,420.2 508.6,419.8 510.5,420.6 512.3,422.1 514.2,424.4 516.0,427.3 517.9,429.9 519.7,433.5 521.6,439.5 523.4,446.6 525.3,453.7 527.1,461.4 529.0,468.7 530.9,473.5 532.7,477.0 534.6,480.1 536.4,482.6 538.3,484.1 540.1,484.7 542.0,484.4 543.8,483.6 545.7,490.6 547.5,500.1 549.4,510.2 551.2,521.1 553.1,531.1 555.0,531.9 556.8,529.9 558.7,526.5 560.5,521.5 562.4,516.8 564.2,512.7 566.1,509.2 567.9,506.9 569.8,504.9 571.6,502.9 573.5,501.4 575.3,500.2 577.2,498.7 579.0,497.2 580.9,495.7 582.8,493.1 584.6,489.3 586.5,484.7 588.3,480.6 590.2,476.8 592.0,473.3 593.9,469.9 595.7,467.1 597.6,464.1 599.4,460.5 601.3,456.3 603.1,451.7 605.0,447.3 606.9,442.9 608.7,439.0 610.6,436.3 612.4,435.3 614.3,447.5 616.1,468.5 618.0,491.0 619.8,513.9 621.7,536.3 623.5,545.9 625.4,547.2 627.2,547.3 629.1,547.2 630.9,547.1 632.8,547.0 634.7,547.0 636.5,547.0 638.4,546.9 640.2,545.7 642.1,542.8 643.9,538.3 645.8,532.6 647.6,526.9 649.5,524.0 651.3,525.3 653.2,528.4 655.0,530.2 656.9,530.2 658.8,526.7 660.6,518.9 662.5,509.0 664.3,499.7 666.2,490.9 668.0,482.8 669.9,475.2 671.7,467.9 673.6,463.6 675.4,463.5 677.3,468.5 679.1,478.2 681.0,492.0 682.8,506.1 684.7,515.8 686.6,518.5 688.4,515.9 690.3,509.7 692.1,500.7 694.0,492.3 695.8,484.9 697.7,477.9 699.5,471.4 701.4,465.2 703.2,459.7 705.1,457.0 706.9,456.6 708.8,461.3 710.7,478.6 712.5,497.2 714.4,515.2 716.2,532.0 718.1,544.8 719.9,545.5 721.8,544.7 723.6,544.1 725.5,544.6 727.3,544.7 729.2,545.3 731.0,546.5 732.9,547.4 734.7,547.5 736.6,547.6 738.5,547.6 740.3,547.7 742.2,547.8 744.0,547.3 745.9,545.7 747.7,544.6 749.6,544.0 751.4,543.1 753.3,542.8 755.1,544.2 757.0,545.2 758.8,545.1 760.7,544.8 762.6,545.2 764.4,545.4 766.3,545.4 768.1,546.0 770.0,547.0 771.8,547.3 773.7,547.3 775.5,547.4 777.4,547.6 779.2,547.6 781.1,547.7 782.9,547.6 784.8,547.2 786.6,546.7 788.5,546.3 790.4,545.7 792.2,545.4 794.1,545.8 795.9,546.1 797.8,546.4 799.6,547.0 801.5,547.4 803.3,547.4 805.2,547.5 807.0,547.4 808.9,547.2 810.7,547.2 812.6,547.1 814.5,546.2 816.3,545.6 818.2,545.2 820.0,544.5 821.9,544.5 823.7,545.1 825.6,545.6 827.4,545.5 829.3,545.5 831.1,545.0 833.0,544.8 834.8,544.7 836.7,545.3 838.5,545.9 840.4,546.5 842.3,547.0 844.1,547.4 846.0,547.5 847.8,547.6 849.7,547.7 851.5,547.7 853.4,547.8 855.2,547.7 857.1,547.3 858.9,546.7 860.8,545.9 862.6,545.2 864.5,544.6 866.4,544.6 868.2,544.7 870.1,544.4 871.9,543.8 873.8,542.5 875.6,540.7 877.5,539.4 879.3,539.4 881.2,540.0 883.0,541.7 884.9,544.0 886.7,545.7 888.6,546.7 890.4,547.5 892.3,547.7 894.2,547.7 896.0,547.8 897.9,547.8 899.7,547.4 901.6,547.2 903.4,546.8 905.3,546.1 907.1,545.1 909.0,544.1 910.8,542.4 912.7,540.6 914.5,538.2 916.4,534.8 918.3,530.4 920.1,528.3 922.0,529.7 923.8,532.6 925.7,537.0 927.5,542.7 929.4,546.7 931.2,547.5 933.1,547.4 934.9,547.3 936.8,547.2 938.6,547.2 940.5,547.3 942.3,547.5 944.2,547.1 946.1,545.9 947.9,544.3 949.8,543.5 951.6,542.9 953.5,542.3 955.3,542.3 957.2,542.4 959.0,541.9 960.9,541.6 962.7,542.7 964.6,543.9 966.4,545.2 968.3,546.1 970.2,546.6 972.0,546.8 973.9,546.8 975.7,547.0 977.6,547.5 979.4,547.7 981.3,547.8 983.1,547.8 985.0,547.8 986.8,547.7 988.7,547.5 990.5,546.7 992.4,545.9 994.2,545.7 996.1,545.2 998.0,544.6 999.8,544.0 1001.7,543.7 1003.5,542.6 1005.4,540.9 1007.2,539.2 1009.1,532.0 1010.9,529.7 1012.8,530.2 1014.6,532.3 1016.5,534.8 1018.3,543.4 1020.2,546.8 1022.1,547.7 1023.9,547.8 1025.8,547.8 1027.6,547.8 1029.5,547.7 1031.3,547.6 1033.2,547.6 1035.0,547.5 1036.9,547.3 1038.7,546.4 1040.6,544.4 1042.4,541.5 1044.3,538.7 1046.1,536.6 1048.0,534.7" fill="none" stroke="#b86842" stroke-width="3.2" stroke-linecap="round" stroke-linejoin="round" opacity="0.92" clip-path="url(#panel-eef)"/>
<polyline points="86.0,536.3 87.9,535.5 89.7,535.3 91.6,532.7 93.4,534.2 95.3,534.8 97.1,534.7 99.0,533.8 100.8,532.2 102.7,529.5 104.5,526.3 106.4,520.4 108.2,510.9 110.1,498.3 111.9,483.5 113.8,468.2 115.7,454.4 117.5,443.4 119.4,435.2 121.2,429.3 123.1,425.1 124.9,422.4 126.8,421.3 128.6,421.5 130.5,422.1 132.3,423.0 134.2,424.3 136.0,426.4 137.9,429.3 139.8,432.2 141.6,434.0 143.5,434.1 145.3,431.8 147.2,427.1 149.0,421.1 150.9,415.3 152.7,409.9 154.6,405.2 156.4,401.4 158.3,411.7 160.1,429.8 162.0,450.3 163.8,474.0 165.7,500.2 167.6,515.0 169.4,523.7 171.3,531.3 173.1,535.9 175.0,535.9 176.8,532.9 178.7,528.8 180.5,523.2 182.4,517.0 184.2,512.3 186.1,507.7 187.9,502.4 189.8,498.1 191.7,495.9 193.5,495.5 195.4,497.1 197.2,499.8 199.1,501.9 200.9,501.9 202.8,499.9 204.6,495.1 206.5,488.0 208.3,479.3 210.2,469.2 212.0,459.5 213.9,452.3 215.7,449.8 217.6,453.5 219.5,464.1 221.3,479.2 223.2,494.7 225.0,507.0 226.9,513.5 228.7,514.0 230.6,510.1 232.4,503.5 234.3,494.7 236.1,485.6 238.0,477.0 239.8,467.7 241.7,457.5 243.6,448.1 245.4,438.9 247.3,429.1 249.1,419.9 251.0,411.7 252.8,404.0 254.7,396.8 256.5,390.4 258.4,384.4 260.2,379.0 262.1,378.0 263.9,378.0 265.8,378.0 267.6,378.0 269.5,378.0 271.4,378.0 273.2,378.0 275.1,378.0 276.9,378.0 278.8,378.0 280.6,378.0 282.5,378.0 284.3,378.0 286.2,378.0 288.0,378.0 289.9,378.0 291.7,378.0 293.6,378.0 295.5,381.7 297.3,386.4 299.2,391.7 301.0,397.5 302.9,403.3 304.7,409.1 306.6,414.9 308.4,420.3 310.3,425.8 312.1,431.2 314.0,436.4 315.8,441.3 317.7,445.7 319.5,448.9 321.4,450.9 323.3,452.0 325.1,453.0 327.0,454.1 328.8,455.2 330.7,456.5 332.5,458.0 334.4,459.4 336.2,461.1 338.1,463.2 339.9,465.7 341.8,469.0 343.6,473.2 345.5,478.0 347.4,485.2 349.2,494.7 351.1,505.6 352.9,515.5 354.8,521.5 356.6,521.2 358.5,515.1 360.3,506.0 362.2,495.5 364.0,487.0 365.9,479.8 367.7,474.5 369.6,469.8 371.4,465.6 373.3,461.1 375.2,457.7 377.0,454.7 378.9,451.3 380.7,447.9 382.6,444.9 384.4,442.3 386.3,439.7 388.1,437.2 390.0,434.5 391.8,432.0 393.7,429.6 395.5,427.5 397.4,425.5 399.3,423.5 401.1,421.8 403.0,420.4 404.8,419.5 406.7,419.1 408.5,419.0 410.4,418.6 412.2,418.3 414.1,417.7 415.9,416.8 417.8,415.8 419.6,414.9 421.5,413.8 423.3,412.5 425.2,411.5 427.1,410.8 428.9,410.6 430.8,411.0 432.6,412.2 434.5,414.1 436.3,416.5 438.2,419.3 440.0,422.5 441.9,426.7 443.7,431.5 445.6,436.6 447.4,446.1 449.3,468.0 451.2,490.1 453.0,510.7 454.9,530.5 456.7,545.4 458.6,547.0 460.4,545.4 462.3,543.6 464.1,541.8 466.0,540.1 467.8,537.6 469.7,534.5 471.5,532.5 473.4,530.8 475.2,529.1 477.1,528.3 479.0,529.3 480.8,529.1 482.7,527.4 484.5,523.8 486.4,518.2 488.2,511.6 490.1,504.7 491.9,498.5 493.8,492.8 495.6,488.4 497.5,486.3 499.3,483.9 501.2,481.3 503.1,480.2 504.9,481.1 506.8,482.4 508.6,486.3 510.5,491.4 512.3,495.4 514.2,499.1 516.0,503.2 517.9,505.6 519.7,508.1 521.6,512.3 523.4,515.9 525.3,522.2 527.1,529.1 529.0,535.6 530.9,540.8 532.7,545.6 534.6,546.0 536.4,545.7 538.3,545.5 540.1,545.2 542.0,544.9 543.8,544.7 545.7,540.0 547.5,532.7 549.4,526.2 551.2,519.7 553.1,512.7 555.0,509.3 556.8,508.8 558.7,507.8 560.5,510.0 562.4,514.1 564.2,519.1 566.1,523.9 567.9,528.5 569.8,529.5 571.6,527.8 573.5,524.7 575.3,520.8 577.2,516.5 579.0,512.7 580.9,509.3 582.8,506.8 584.6,505.8 586.5,506.3 588.3,507.9 590.2,510.8 592.0,514.8 593.9,519.1 595.7,522.8 597.6,525.6 599.4,527.8 601.3,527.2 603.1,522.0 605.0,514.0 606.9,504.6 608.7,493.7 610.6,483.1 612.4,474.2 614.3,466.4 616.1,460.2 618.0,456.7 619.8,457.4 621.7,463.5 623.5,473.2 625.4,483.6 627.2,493.7 629.1,501.8 630.9,506.5 632.8,508.3 634.7,507.7 636.5,504.5 638.4,503.1 640.2,502.5 642.1,500.5 643.9,498.6 645.8,499.2 647.6,497.2 649.5,494.2 651.3,495.1 653.2,499.1 655.0,503.4 656.9,509.2 658.8,516.4 660.6,522.0 662.5,526.3 664.3,530.6 666.2,534.4 668.0,537.5 669.9,540.2 671.7,541.7 673.6,541.1 675.4,538.9 677.3,535.3 679.1,531.0 681.0,526.8 682.8,523.2 684.7,519.3 686.6,515.4 688.4,512.7 690.3,510.3 692.1,507.3 694.0,503.9 695.8,499.2 697.7,492.3 699.5,483.8 701.4,474.8 703.2,466.6 705.1,460.9 706.9,458.7 708.8,460.2 710.7,465.4 712.5,473.8 714.4,483.9 716.2,493.8 718.1,502.7 719.9,509.9 721.8,514.4 723.6,515.4 725.5,512.7 727.3,506.7 729.2,498.1 731.0,493.8 732.9,493.1 734.7,493.3 736.6,493.9 738.5,495.1 740.3,492.1 742.2,487.0 744.0,483.0 745.9,480.2 747.7,478.2 749.6,479.0 751.4,482.3 753.3,487.3 755.1,495.4 757.0,504.5 758.8,509.4 760.7,514.1 762.6,519.8 764.4,522.6 766.3,524.3 768.1,527.2 770.0,526.8 771.8,521.9 773.7,516.4 775.5,510.8 777.4,505.0 779.2,499.6 781.1,494.8 782.9,491.0 784.8,488.4 786.6,486.6 788.5,486.8 790.4,489.4 792.2,494.3 794.1,501.0 795.9,508.5 797.8,515.3 799.6,521.2 801.5,525.8 803.3,528.5 805.2,530.3 807.0,531.8 808.9,532.1 810.7,530.4 812.6,526.7 814.5,521.0 816.3,513.4 818.2,504.7 820.0,495.7 821.9,488.0 823.7,482.6 825.6,479.3 827.4,476.2 829.3,474.3 831.1,475.6 833.0,478.3 834.8,481.7 836.7,487.5 838.5,494.4 840.4,498.7 842.3,501.2 844.1,503.5 846.0,505.7 847.8,508.7 849.7,512.9 851.5,517.8 853.4,522.6 855.2,527.2 857.1,531.8 858.9,535.7 860.8,538.1 862.6,539.2 864.5,539.6 866.4,538.4 868.2,536.2 870.1,534.1 871.9,531.9 873.8,529.3 875.6,526.7 877.5,523.6 879.3,519.3 881.2,513.7 883.0,507.7 884.9,502.6 886.7,499.8 888.6,500.2 890.4,503.6 892.3,508.0 894.2,512.1 896.0,514.9 897.9,516.0 899.7,515.3 901.6,512.9 903.4,508.4 905.3,502.1 907.1,494.3 909.0,484.9 910.8,474.9 912.7,465.2 914.5,457.5 916.4,451.8 918.3,447.7 920.1,445.2 922.0,444.2 923.8,442.8 925.7,441.1 927.5,439.4 929.4,436.6 931.2,432.4 933.1,427.7 934.9,423.1 936.8,419.0 938.6,416.4 940.5,415.4 942.3,415.7 944.2,417.5 946.1,421.4 947.9,426.2 949.8,431.3 951.6,437.4 953.5,444.1 955.3,450.2 957.2,456.5 959.0,462.0 960.9,464.8 962.7,465.0 964.6,463.0 966.4,459.8 968.3,456.4 970.2,454.2 972.0,453.6 973.9,454.0 975.7,455.8 977.6,459.8 979.4,466.2 981.3,474.5 983.1,485.4 985.0,497.6 986.8,508.7 988.7,516.9 990.5,521.5 992.4,521.9 994.2,519.2 996.1,515.1 998.0,510.7 999.8,506.9 1001.7,504.3 1003.5,502.7 1005.4,502.3 1007.2,503.7 1009.1,510.7 1010.9,514.6 1012.8,517.3 1014.6,520.0 1016.5,521.6 1018.3,516.6 1020.2,513.5 1022.1,511.2 1023.9,507.3 1025.8,502.5 1027.6,499.2 1029.5,496.8 1031.3,493.7 1033.2,491.3 1035.0,489.2 1036.9,487.0 1038.7,484.8 1040.6,483.7 1042.4,483.8 1044.3,484.3 1046.1,484.6 1048.0,485.5" fill="none" stroke="#6f7680" stroke-width="3.2" stroke-linecap="round" stroke-linejoin="round" opacity="0.92" clip-path="url(#panel-eef)"/>
<polyline points="86.0,537.5 87.9,537.0 89.7,537.2 91.6,535.6 93.4,536.5 95.3,535.6 97.1,533.7 99.0,530.5 100.8,525.8 102.7,521.1 104.5,517.3 106.4,512.3 108.2,504.8 110.1,494.7 111.9,482.5 113.8,469.4 115.7,456.6 117.5,445.9 119.4,437.8 121.2,432.0 123.1,428.0 124.9,425.9 126.8,426.3 128.6,428.2 130.5,430.5 132.3,432.6 134.2,433.4 136.0,432.0 137.9,428.8 139.8,424.1 141.6,418.4 143.5,411.6 145.3,404.7 147.2,398.7 149.0,394.1 150.9,391.6 152.7,391.5 154.6,393.4 156.4,396.7 158.3,401.7 160.1,407.4 162.0,413.4 163.8,419.2 165.7,425.3 167.6,445.4 169.4,468.4 171.3,490.9 173.1,512.5 175.0,533.2 176.8,536.7 178.7,535.2 180.5,533.1 182.4,531.3 184.2,529.3 186.1,528.8 187.9,527.6 189.8,525.1 191.7,522.1 193.5,517.7 195.4,511.8 197.2,505.5 199.1,498.2 200.9,489.2 202.8,479.9 204.6,471.8 206.5,465.1 208.3,460.5 210.2,457.5 212.0,454.3 213.9,449.7 215.7,443.5 217.6,435.8 219.5,427.3 221.3,418.9 223.2,411.4 225.0,405.1 226.9,399.4 228.7,394.3 230.6,390.0 232.4,386.2 234.3,382.7 236.1,379.9 238.0,378.0 239.8,378.0 241.7,378.0 243.6,378.0 245.4,378.0 247.3,378.0 249.1,378.0 251.0,378.0 252.8,378.0 254.7,378.0 256.5,378.6 258.4,380.3 260.2,382.0 262.1,384.0 263.9,385.8 265.8,387.6 267.6,391.9 269.5,398.6 271.4,406.9 273.2,416.5 275.1,427.0 276.9,435.7 278.8,442.1 280.6,446.8 282.5,450.4 284.3,452.8 286.2,454.6 288.0,455.6 289.9,456.2 291.7,456.9 293.6,457.8 295.5,458.7 297.3,459.0 299.2,459.3 301.0,458.9 302.9,457.4 304.7,455.4 306.6,453.6 308.4,452.3 310.3,452.4 312.1,454.6 314.0,459.0 315.8,466.2 317.7,475.7 319.5,485.8 321.4,495.9 323.3,505.5 325.1,514.4 327.0,522.0 328.8,528.0 330.7,531.8 332.5,533.8 334.4,533.1 336.2,529.5 338.1,524.7 339.9,519.6 341.8,513.2 343.6,506.3 345.5,499.8 347.4,493.4 349.2,488.3 351.1,485.1 352.9,482.3 354.8,480.2 356.6,478.4 358.5,475.4 360.3,475.9 362.2,476.3 364.0,473.9 365.9,469.6 367.7,464.2 369.6,454.2 371.4,443.9 373.3,436.0 375.2,429.4 377.0,423.5 378.9,418.1 380.7,413.4 382.6,409.1 384.4,405.8 386.3,403.4 388.1,401.4 390.0,399.9 391.8,399.4 393.7,399.5 395.5,400.8 397.4,402.9 399.3,406.2 401.1,410.8 403.0,416.1 404.8,422.1 406.7,428.3 408.5,435.4 410.4,450.2 412.2,469.0 414.1,490.0 415.9,510.5 417.8,529.2 419.6,538.7 421.5,543.3 423.3,544.4 425.2,545.0 427.1,545.5 428.9,545.4 430.8,543.4 432.6,540.3 434.5,535.7 436.3,529.8 438.2,523.9 440.0,519.3 441.9,515.2 443.7,512.9 445.6,512.0 447.4,511.8 449.3,512.3 451.2,513.1 453.0,505.9 454.9,491.3 456.7,473.8 458.6,454.5 460.4,434.2 462.3,420.8 464.1,413.8 466.0,409.0 467.8,405.8 469.7,403.6 471.5,401.6 473.4,399.6 475.2,397.9 477.1,396.4 479.0,395.9 480.8,397.0 482.7,399.7 484.5,403.1 486.4,407.3 488.2,412.4 490.1,417.8 491.9,424.0 493.8,431.3 495.6,439.1 497.5,446.9 499.3,453.9 501.2,458.9 503.1,461.0 504.9,460.3 506.8,457.6 508.6,454.2 510.5,451.3 512.3,449.9 514.2,449.8 516.0,451.2 517.9,454.9 519.7,461.5 521.6,470.5 523.4,480.3 525.3,490.3 527.1,500.1 529.0,509.4 530.9,516.4 532.7,521.2 534.6,523.2 536.4,521.3 538.3,515.5 540.1,508.3 542.0,501.8 543.8,497.3 545.7,498.9 547.5,499.9 549.4,499.6 551.2,498.5 553.1,496.4 555.0,490.9 556.8,488.2 558.7,488.4 560.5,488.9 562.4,489.5 564.2,489.6 566.1,489.8 567.9,490.2 569.8,492.0 571.6,495.7 573.5,500.6 575.3,505.0 577.2,508.2 579.0,510.3 580.9,510.7 582.8,509.4 584.6,507.2 586.5,504.6 588.3,503.6 590.2,503.4 592.0,503.9 593.9,505.4 595.7,507.7 597.6,509.4 599.4,509.5 601.3,507.7 603.1,504.2 605.0,500.2 606.9,495.3 608.7,491.0 610.6,487.9 612.4,486.5 614.3,497.1 616.1,509.0 618.0,521.6 619.8,534.2 621.7,546.6 623.5,546.9 625.4,546.8 627.2,545.1 629.1,543.7 630.9,542.3 632.8,540.2 634.7,539.6 636.5,539.6 638.4,536.9 640.2,531.8 642.1,525.2 643.9,514.7 645.8,503.6 647.6,493.5 649.5,484.5 651.3,477.0 653.2,471.3 655.0,466.5 656.9,462.5 658.8,459.8 660.6,457.4 662.5,454.6 664.3,451.9 666.2,449.0 668.0,445.6 669.9,442.5 671.7,439.6 673.6,436.8 675.4,434.5 677.3,433.5 679.1,433.1 681.0,433.6 682.8,435.6 684.7,439.2 686.6,444.2 688.4,451.1 690.3,459.2 692.1,466.8 694.0,472.4 695.8,476.6 697.7,478.5 699.5,477.0 701.4,473.5 703.2,470.2 705.1,467.0 706.9,464.4 708.8,463.5 710.7,464.0 712.5,464.9 714.4,466.4 716.2,468.6 718.1,471.2 719.9,474.1 721.8,477.5 723.6,480.2 725.5,482.8 727.3,486.4 729.2,490.5 731.0,489.8 732.9,486.2 734.7,486.5 736.6,487.7 738.5,490.5 740.3,498.4 742.2,508.4 744.0,512.9 745.9,516.2 747.7,518.9 749.6,521.1 751.4,521.8 753.3,520.6 755.1,516.4 757.0,508.4 758.8,497.8 760.7,486.4 762.6,475.6 764.4,466.4 766.3,459.8 768.1,456.6 770.0,458.1 771.8,464.5 773.7,473.6 775.5,483.2 777.4,492.3 779.2,499.2 781.1,502.7 782.9,503.6 784.8,502.9 786.6,500.2 788.5,495.9 790.4,490.2 792.2,483.8 794.1,477.3 795.9,470.9 797.8,464.9 799.6,459.9 801.5,456.3 803.3,454.0 805.2,453.4 807.0,453.8 808.9,455.2 810.7,458.2 812.6,463.4 814.5,479.8 816.3,495.4 818.2,510.6 820.0,522.6 821.9,531.3 823.7,530.9 825.6,531.3 827.4,530.0 829.3,528.5 831.1,530.9 833.0,530.7 834.8,530.6 836.7,531.4 838.5,531.2 840.4,525.0 842.3,516.1 844.1,505.3 846.0,492.7 847.8,480.6 849.7,469.6 851.5,458.9 853.4,448.7 855.2,439.0 857.1,429.8 858.9,421.6 860.8,415.3 862.6,410.0 864.5,405.8 866.4,402.5 868.2,400.0 870.1,398.1 871.9,397.1 873.8,397.1 875.6,398.0 877.5,400.5 879.3,405.5 881.2,412.6 883.0,421.4 884.9,431.6 886.7,441.9 888.6,450.7 890.4,458.2 892.3,464.3 894.2,468.4 896.0,470.6 897.9,471.0 899.7,469.4 901.6,466.3 903.4,463.5 905.3,462.0 907.1,462.1 909.0,464.6 910.8,469.3 912.7,476.5 914.5,485.2 916.4,490.5 918.3,490.1 920.1,487.8 922.0,482.6 923.8,474.7 925.7,469.5 927.5,469.1 929.4,476.9 931.2,491.0 933.1,506.4 934.9,522.2 936.8,536.4 938.6,542.2 940.5,540.3 942.3,535.9 944.2,529.7 946.1,522.3 947.9,512.8 949.8,503.5 951.6,495.7 953.5,489.0 955.3,484.7 957.2,483.1 959.0,483.2 960.9,483.5 962.7,484.1 964.6,484.1 966.4,483.6 968.3,481.9 970.2,478.6 972.0,474.0 973.9,468.7 975.7,463.1 977.6,457.1 979.4,452.0 981.3,448.0 983.1,445.0 985.0,443.3 986.8,442.3 988.7,441.3 990.5,440.0 992.4,438.2 994.2,440.2 996.1,457.6 998.0,476.2 999.8,496.4 1001.7,517.7 1003.5,535.5 1005.4,539.0 1007.2,542.4 1009.1,544.6 1010.9,544.8 1012.8,542.7 1014.6,539.5 1016.5,535.7 1018.3,531.7 1020.2,528.6 1022.1,526.6 1023.9,524.4 1025.8,520.8 1027.6,514.8 1029.5,507.1 1031.3,498.6 1033.2,488.7 1035.0,478.6 1036.9,469.7 1038.7,461.5 1040.6,453.4 1042.4,446.5 1044.3,442.7 1046.1,440.1 1048.0,438.2" fill="none" stroke="#486b3e" stroke-width="3.2" stroke-linecap="round" stroke-linejoin="round" opacity="0.92" clip-path="url(#panel-eef)"/>
<text x="86" y="574" font-family="Avenir Next, Trebuchet MS, sans-serif" font-size="12" fill="#5a6257">0s</text>
<text x="1012" y="574" font-family="Avenir Next, Trebuchet MS, sans-serif" font-size="12" fill="#5a6257">6.5s</text>
</svg>